<svg width="66" height="61" viewBox="0 0 66 61" fill="none" xmlns="http://www.w3.org/2000/svg">
<path fill-rule="evenodd" clip-rule="evenodd" d="M63.3304 29.0786L63.3004 33.6558C60.1776 66.5641 4.68712 66.9231 2.61523 33.3268L2.64526 28.7495L2.70532 30.0658C6.36865 61.957 58.5561 61.598 63.2103 30.3949L63.3304 29.0786Z" fill="white"/>
<path d="M63.3304 29.0786L63.3004 33.6558C60.1776 66.5641 4.68712 66.9231 2.61523 33.3268L2.64526 28.7495L2.70532 30.0658C6.36865 61.957 58.5561 61.598 63.2103 30.3949L63.3304 29.0786Z" fill="#414141" stroke="#231F20" stroke-width="0.5" stroke-miterlimit="22.926" stroke-linejoin="bevel"/>
<path fill-rule="evenodd" clip-rule="evenodd" d="M34.3868 2.5424C51.142 2.99115 64.1138 14.898 63.3632 29.0785C62.6125 43.2889 48.4096 54.4178 31.6844 53.9691C14.9591 53.5203 1.98736 41.6434 2.73804 27.433C3.45869 13.2226 17.6316 2.09365 34.3868 2.5424Z" fill="white"/>
<path d="M34.3868 2.5424C51.142 2.99115 64.1138 14.898 63.3632 29.0785C62.6125 43.2889 48.4096 54.4178 31.6844 53.9691C14.9591 53.5203 1.98736 41.6434 2.73804 27.433C3.45869 13.2226 17.6316 2.09365 34.3868 2.5424Z" fill="#797979" stroke="#231F20" stroke-width="0.55" stroke-miterlimit="22.926"/>
<path fill-rule="evenodd" clip-rule="evenodd" d="M34.2355 5.53409C49.039 5.95292 60.5094 16.4537 59.8188 28.9887C59.1582 41.5238 46.6068 51.3963 31.8033 50.9774C16.9999 50.5885 5.52942 40.0579 6.22005 27.5228C6.88065 14.9877 19.4321 5.14517 34.2355 5.53409Z" fill="#B6B6B6"/>
<path d="M34.2355 5.53409C49.039 5.95292 60.5094 16.4537 59.8188 28.9887C59.1582 41.5238 46.6068 51.3963 31.8033 50.9774C16.9999 50.5885 5.52942 40.0579 6.22005 27.5228C6.88065 14.9877 19.4321 5.14517 34.2355 5.53409Z" stroke="#231F20" stroke-width="0.55" stroke-miterlimit="22.926"/>
<path d="M64.472 29.0189L64.442 33.7756C61.2291 67.2822 5.49843 68.5088 1.56486 34.7928L1.5048 33.4465C1.5048 31.4122 1.47478 29.3479 1.56486 27.3136C2.34557 12.5946 17.0589 1.04681 34.4147 1.49556C51.8005 1.97422 65.2528 14.2999 64.472 29.0189Z" stroke="#231F20" stroke-miterlimit="22.926" stroke-linejoin="bevel"/>
</svg>
