<svg width="462" height="230" viewBox="0 0 462 230" fill="none" xmlns="http://www.w3.org/2000/svg">
<path fill-rule="evenodd" clip-rule="evenodd" d="M16.4069 5.11461C9.57339 7.45621 5.32554 9.92104 3.57099 17.0691C1.93957 23.8782 0.677528 35.0932 2.27817 41.9331C15.9452 100.843 13.5442 119.298 20.8702 151.587C25.1796 170.659 30.5664 189.484 46.3265 195.677C140.426 206.368 249.823 222.482 348.263 226.395C351.956 226.549 421.646 230.062 427.556 227.628C443.07 221.25 456.644 205.875 458.276 189.577C461.97 152.882 460.4 153.19 457.845 105.865C456.891 88.272 449.657 68.4301 451.781 51.2379C452.674 43.9974 449.134 39.7456 446.517 35.4629C437.714 20.9512 427.987 19.1642 417.829 18.4555C350.233 13.834 282.329 13.834 214.917 7.11729C166.805 2.37249 123.28 1.57141 83.1105 3.11194C61.2864 3.91301 37.5538 -2.06422 16.4069 5.11461Z" fill="white"/>
<path d="M16.4069 5.11461C9.57339 7.45621 5.32554 9.92104 3.57099 17.0691C1.93957 23.8782 0.677528 35.0932 2.27817 41.9331C15.9452 100.843 13.5442 119.298 20.8702 151.587C25.1796 170.659 30.5664 189.484 46.3265 195.677C140.426 206.368 249.823 222.482 348.263 226.395C351.956 226.549 421.646 230.062 427.556 227.628C443.07 221.25 456.644 205.875 458.276 189.577C461.97 152.882 460.4 153.19 457.845 105.865C456.891 88.272 449.657 68.4301 451.781 51.2379C452.674 43.9974 449.134 39.7456 446.517 35.4629C437.714 20.9512 427.987 19.1642 417.829 18.4555C350.233 13.834 282.329 13.834 214.917 7.11729C166.805 2.37248 123.28 1.57141 83.1105 3.11194C61.2864 3.91301 37.5538 -2.06422 16.4069 5.11461Z" stroke="#231F20" stroke-miterlimit="22.926"/>
<path d="M415.524 44.8908C292.921 23.6315 168.163 38.9443 44.2062 31.9812C98.1047 48.3415 154.466 56.8144 214.459 56.5063C276.668 56.1674 342.695 56.1674 404.904 57.1533C411.368 57.2457 422.019 54.7193 427.436 56.7836C431.961 58.509 438.918 60.5117 449.445 122.564C450.122 122.502 451.323 122.441 452.092 122.256C446.736 54.5652 427.867 49.5123 426.913 48.9577C423.373 46.9859 419.649 45.5994 415.524 44.8908ZM46.3302 5.515C36.2646 4.59069 20.843 2.89611 11.547 8.7501C2.74351 14.6041 2.15866 28.0991 3.45148 36.6644C4.12868 41.1627 7.85324 41.6248 11.547 41.933C29.7081 43.381 48.0539 48.0334 66.1227 50.375C104.323 55.3355 142.122 62.0214 180.107 63.7159C212.797 65.1948 244.563 64.0857 276.33 66.2116C324.811 69.4467 373.322 64.024 423.065 62.7608C424.635 62.73 428.883 61.4668 430.884 67.1051C436.886 83.9584 441.842 123.704 446.921 132.023C449.753 136.675 455.971 127.555 455.017 121.516C454.062 115.477 450.184 72.1888 444.028 45.9383C440.795 32.1968 435.162 28.0991 432.762 25.7575C429.252 22.3375 423.219 21.8754 417.001 21.7213C347.22 19.8111 277.93 16.5143 209.226 10.3831C174.412 7.2712 139.444 3.63556 104.138 6.34688C84.7455 7.82579 65.661 7.30201 46.3302 5.515Z" stroke="#231F20" stroke-width="0.55" stroke-miterlimit="22.926"/>
<path fill-rule="evenodd" clip-rule="evenodd" d="M56.5807 35.9556L56.4268 39.0058L56.8885 39.0982L57.3502 39.1906C67.2311 39.6528 65.8151 44.5517 72.6794 44.8598H73.018H73.3566C80.1285 45.2911 84.8073 40.3923 85.9155 34.1377L85.9463 33.768L86.1002 30.7178L86.0694 31.0875L86.0386 31.4572C84.6534 37.6193 80.1901 42.1793 73.5105 41.8095H73.1719H72.8333C65.969 41.5014 67.385 36.6026 57.5041 36.1404L57.0424 36.048L56.5807 35.9556Z" fill="white"/>
<path d="M56.5807 35.9556L56.4268 39.0058L56.8885 39.0982L57.3502 39.1906C67.2311 39.6528 65.8151 44.5517 72.6794 44.8598H73.018H73.3566C80.1285 45.2911 84.8073 40.3923 85.9155 34.1377L85.9463 33.768L86.1002 30.7178L86.0694 31.0875L86.0386 31.4572C84.6534 37.6193 80.1901 42.1793 73.5105 41.8095H73.1719H72.8333C65.969 41.5014 67.385 36.6026 57.5041 36.1404L57.0424 36.048L56.5807 35.9556Z" stroke="#231F20" stroke-width="0.216" stroke-miterlimit="22.926" stroke-linejoin="bevel"/>
<path fill-rule="evenodd" clip-rule="evenodd" d="M56.5807 35.9556L56.4268 39.0058L56.8885 39.0982L57.3502 39.1906C67.2311 39.6528 65.8151 44.5517 72.6794 44.8598H73.018H73.3566C80.1285 45.2911 84.8073 40.3923 85.9155 34.1377L85.9463 33.768L86.1002 30.7178L86.0694 31.0875L86.0386 31.4572C84.6534 37.6193 80.1901 42.1793 73.5105 41.8095H73.1719H72.8333C65.969 41.5014 67.385 36.6026 57.5041 36.1404L57.0424 36.048L56.5807 35.9556Z" fill="white"/>
<path d="M56.5807 35.9556L56.4268 39.0058L56.8885 39.0982L57.3502 39.1906C67.2311 39.6528 65.8151 44.5517 72.6794 44.8598H73.018H73.3566C80.1285 45.2911 84.8073 40.3923 85.9155 34.1377L85.9463 33.768L86.1002 30.7178L86.0694 31.0875L86.0386 31.4572C84.6534 37.6193 80.1901 42.1793 73.5105 41.8095H73.1719H72.8333C65.969 41.5014 67.385 36.6026 57.5041 36.1404L57.0424 36.048L56.5807 35.9556Z" stroke="#231F20" stroke-width="0.55" stroke-miterlimit="22.926" stroke-linejoin="bevel"/>
<path fill-rule="evenodd" clip-rule="evenodd" d="M59.991 26.5276C58.8521 29.6703 57.7131 32.813 56.5742 35.9556C59.0983 36.5102 61.0375 36.3253 63.3769 37.2497C65.9934 38.2664 68.3328 41.2858 71.1954 41.6556C74.5199 42.0869 78.7061 41.6864 80.984 39.7145C84.2468 36.9107 86.6786 32.7205 85.9706 28.9308C85.5089 26.466 80.7377 24.8639 77.598 24.5249C74.2428 24.1552 71.0108 26.2811 67.6556 26.6201C64.8852 26.8974 62.7921 26.6817 59.991 26.5276Z" fill="white"/>
<path d="M59.991 26.5276C58.8521 29.6703 57.7131 32.813 56.5742 35.9556C59.0983 36.5102 61.0375 36.3253 63.3769 37.2497C65.9934 38.2664 68.3328 41.2858 71.1954 41.6556C74.5199 42.0869 78.7061 41.6864 80.984 39.7145C84.2468 36.9107 86.6786 32.7205 85.9706 28.9308C85.5089 26.466 80.7377 24.8639 77.598 24.5249C74.2428 24.1552 71.0108 26.2811 67.6556 26.6201C64.8852 26.8974 62.7921 26.6817 59.991 26.5276Z" stroke="#231F20" stroke-width="0.5" stroke-miterlimit="22.926" stroke-linejoin="bevel"/>
<path fill-rule="evenodd" clip-rule="evenodd" d="M81.8479 30.9956C84.4336 31.8891 86.0034 34.1075 85.357 35.9561C84.7106 37.8047 82.125 38.6058 79.5393 37.7431C76.9537 36.8496 75.3838 34.6312 75.9994 32.7826C76.6151 30.934 79.2931 30.1021 81.8479 30.9956ZM82.5867 28.8081C86.8345 30.2561 89.4509 33.9226 88.4044 36.9728C87.3578 40.0231 83.0792 41.3479 78.8313 39.8998C74.5835 38.4517 71.9978 34.7853 73.0136 31.735C74.0602 28.6848 78.3388 27.36 82.5867 28.8081Z" fill="white"/>
<path d="M81.8479 30.9956C84.4336 31.8891 86.0034 34.1075 85.357 35.9561C84.7106 37.8047 82.125 38.6058 79.5393 37.7431C76.9537 36.8496 75.3838 34.6312 75.9994 32.7826C76.6151 30.934 79.2931 30.1021 81.8479 30.9956ZM82.5867 28.8081C86.8345 30.2561 89.4509 33.9226 88.4044 36.9728C87.3578 40.0231 83.0792 41.3479 78.8313 39.8998C74.5835 38.4517 71.9978 34.7853 73.0136 31.735C74.0602 28.6848 78.3388 27.36 82.5867 28.8081Z" stroke="#231F20" stroke-width="0.5" stroke-miterlimit="22.926"/>
<path fill-rule="evenodd" clip-rule="evenodd" d="M82.0986 41.9948C85.8232 40.5159 89.5478 39.0062 93.3031 37.5273C93.9495 32.9674 93.1184 30.4409 90.1634 31.1187C85.3923 32.1971 83.2068 36.5722 82.0986 41.9948Z" fill="white"/>
<path d="M82.0986 41.9948C85.8232 40.5159 89.5478 39.0062 93.3031 37.5273C93.9495 32.9674 93.1184 30.4409 90.1634 31.1187C85.3923 32.1971 83.2068 36.5722 82.0986 41.9948Z" stroke="#231F20" stroke-width="0.216" stroke-miterlimit="22.926" stroke-linejoin="bevel"/>
<path fill-rule="evenodd" clip-rule="evenodd" d="M160.772 40.023L91.3902 31.0264C85.8803 31.0572 83.11 36.8187 82.2173 41.5019L82.125 42.0257L151.507 51.0223L151.599 50.4986C152.492 45.8462 155.139 40.2695 160.556 39.9922L160.772 40.023Z" fill="white"/>
<path d="M160.772 40.023L91.3902 31.0264C85.8803 31.0572 83.11 36.8187 82.2173 41.5019L82.125 42.0257L151.507 51.0223L151.599 50.4986C152.492 45.8462 155.139 40.2695 160.556 39.9922L160.772 40.023Z" stroke="#231F20" stroke-width="0.216" stroke-miterlimit="22.926" stroke-linejoin="bevel"/>
<path fill-rule="evenodd" clip-rule="evenodd" d="M151.504 51.0221L151.843 50.8989C155.352 49.4816 158.83 48.0951 162.339 46.7086L162.678 46.5546L162.739 46.1232C164.524 34.4769 152.458 41.286 151.596 50.5291L151.504 51.0221Z" fill="white"/>
<path d="M151.504 51.0221L151.843 50.8989C155.352 49.4816 158.83 48.0951 162.339 46.7086L162.678 46.5546L162.739 46.1232C164.524 34.4769 152.458 41.286 151.596 50.5291L151.504 51.0221Z" stroke="#231F20" stroke-width="0.216" stroke-miterlimit="22.926" stroke-linejoin="bevel"/>
<path fill-rule="evenodd" clip-rule="evenodd" d="M160.772 40.023L91.3902 31.0264C85.8803 31.0572 83.11 36.8187 82.2173 41.5019L82.125 42.0257L151.507 51.0223L151.599 50.4986C152.492 45.8462 155.139 40.2695 160.556 39.9922L160.772 40.023Z" fill="white"/>
<path d="M160.772 40.023L91.3902 31.0264C85.8803 31.0572 83.11 36.8187 82.2173 41.5019L82.125 42.0257L151.507 51.0223L151.599 50.4986C152.492 45.8462 155.139 40.2695 160.556 39.9922L160.772 40.023Z" stroke="#231F20" stroke-width="0.5" stroke-miterlimit="22.926" stroke-linejoin="bevel"/>
<path fill-rule="evenodd" clip-rule="evenodd" d="M151.504 51.0221L151.843 50.8989C155.352 49.4816 158.83 48.0951 162.339 46.7086L162.678 46.5546L162.739 46.1232C164.524 34.4769 152.458 41.286 151.596 50.5291L151.504 51.0221Z" fill="white"/>
<path d="M151.504 51.0221L151.843 50.8989C155.352 49.4816 158.83 48.0951 162.339 46.7086L162.678 46.5546L162.739 46.1232C164.524 34.4769 152.458 41.286 151.596 50.5291L151.504 51.0221Z" stroke="#231F20" stroke-width="0.5" stroke-miterlimit="22.926" stroke-linejoin="bevel"/>
<path fill-rule="evenodd" clip-rule="evenodd" d="M61.9609 30.0709C70.3027 26.1272 77.4749 30.1634 84.4623 33.4293C83.8774 34.9082 83.4157 35.7709 82.7385 37.1574C73.8118 34.4152 67.2554 31.9196 61.1914 34.0455C61.6223 32.6282 61.5608 31.4882 61.9609 30.0709Z" fill="white"/>
<path d="M429.525 149.924C441.499 142.005 453.904 134.703 458.706 116.833L429.525 149.924ZM15.3292 42.4261C22.3474 83.3115 27.9804 124.474 36.353 165.144C39.7697 181.751 46.6956 186.218 52.544 186.619C172.469 194.784 375.719 234.406 430.88 210.528C437.775 156.671 417.921 112.52 420.753 62.6994L15.3292 42.4261ZM46.0799 32.3819L3.07812 28.0376L46.0799 32.3819ZM61.9632 30.0711C70.305 26.1273 77.4771 30.1635 84.4645 33.4294C83.8796 34.9083 83.4179 35.771 82.7407 37.1575C73.8141 34.4154 67.2576 31.9197 61.1937 34.0456C61.6246 32.6284 61.563 31.4884 61.9632 30.0711Z" stroke="#231F20" stroke-width="0.5" stroke-miterlimit="22.926"/>
<path fill-rule="evenodd" clip-rule="evenodd" d="M16.4069 5.11461C9.57339 7.45621 5.32554 9.92104 3.57099 17.0691C1.93957 23.8782 0.677528 35.0932 2.27817 41.9331C15.9452 100.843 13.5442 119.298 20.8702 151.587C25.1796 170.659 30.5664 189.484 46.3265 195.677C140.426 206.368 249.823 222.482 348.263 226.395C351.956 226.549 421.646 230.062 427.556 227.628C443.07 221.25 456.644 205.875 458.276 189.577C461.97 152.882 460.4 153.19 457.845 105.865C456.891 88.272 449.657 68.4301 451.781 51.2379C452.674 43.9974 449.134 39.7456 446.517 35.4629C437.714 20.9512 427.987 19.1642 417.829 18.4555C350.233 13.834 282.329 13.834 214.917 7.11729C166.805 2.37249 123.28 1.57141 83.1105 3.11194C61.2864 3.91301 37.5538 -2.06422 16.4069 5.11461Z" fill="white"/>
<path d="M16.4069 5.11461C9.57339 7.45621 5.32554 9.92104 3.57099 17.0691C1.93957 23.8782 0.677528 35.0932 2.27817 41.9331C15.9452 100.843 13.5442 119.298 20.8702 151.587C25.1796 170.659 30.5664 189.484 46.3265 195.677C140.426 206.368 249.823 222.482 348.263 226.395C351.956 226.549 421.646 230.062 427.556 227.628C443.07 221.25 456.644 205.875 458.276 189.577C461.97 152.882 460.4 153.19 457.845 105.865C456.891 88.272 449.657 68.4301 451.781 51.2379C452.674 43.9974 449.134 39.7456 446.517 35.4629C437.714 20.9512 427.987 19.1642 417.829 18.4555C350.233 13.834 282.329 13.834 214.917 7.11729C166.805 2.37249 123.28 1.57141 83.1105 3.11194C61.2864 3.91301 37.5538 -2.06422 16.4069 5.11461Z" fill="#5C5C5C" stroke="#231F20" stroke-miterlimit="22.926"/>
<path d="M415.524 44.8908C292.921 23.6315 168.163 38.9443 44.2062 31.9812C98.1047 48.3415 154.466 56.8144 214.459 56.5063C276.668 56.1674 342.695 56.1674 404.904 57.1533C411.368 57.2457 422.019 54.7193 427.436 56.7836C431.961 58.509 438.918 60.5117 449.445 122.564C450.122 122.502 451.323 122.441 452.092 122.256C446.736 54.5652 427.867 49.5123 426.913 48.9577C423.373 46.9859 419.649 45.5994 415.524 44.8908ZM46.3302 5.515C36.2646 4.59069 20.843 2.89611 11.547 8.7501C2.74351 14.6041 2.15866 28.0991 3.45148 36.6644C4.12868 41.1627 7.85324 41.6248 11.547 41.933C29.7081 43.381 48.0539 48.0334 66.1227 50.375C104.323 55.3355 142.122 62.0214 180.107 63.7159C212.797 65.1948 244.563 64.0857 276.33 66.2116C324.811 69.4467 373.322 64.024 423.065 62.7608C424.635 62.73 428.883 61.4668 430.884 67.1051C436.886 83.9584 441.842 123.704 446.921 132.023C449.753 136.675 455.971 127.555 455.017 121.516C454.062 115.477 450.184 72.1888 444.028 45.9383C440.795 32.1968 435.162 28.0991 432.762 25.7575C429.252 22.3375 423.219 21.8754 417.001 21.7213C347.22 19.8111 277.93 16.5143 209.226 10.3831C174.412 7.2712 139.444 3.63556 104.138 6.34688C84.7455 7.82579 65.661 7.30201 46.3302 5.515Z" stroke="#231F20" stroke-width="0.55" stroke-miterlimit="22.926"/>
<path fill-rule="evenodd" clip-rule="evenodd" d="M56.5807 35.9556L56.4268 39.0058L56.8885 39.0982L57.3502 39.1906C67.2311 39.6528 65.8151 44.5517 72.6794 44.8598H73.018H73.3566C80.1285 45.2911 84.8073 40.3923 85.9155 34.1377L85.9463 33.768L86.1002 30.7178L86.0694 31.0875L86.0386 31.4572C84.6534 37.6193 80.1901 42.1793 73.5105 41.8095H73.1719H72.8333C65.969 41.5014 67.385 36.6026 57.5041 36.1404L57.0424 36.048L56.5807 35.9556Z" fill="white"/>
<path d="M56.5807 35.9556L56.4268 39.0058L56.8885 39.0982L57.3502 39.1906C67.2311 39.6528 65.8151 44.5517 72.6794 44.8598H73.018H73.3566C80.1285 45.2911 84.8073 40.3923 85.9155 34.1377L85.9463 33.768L86.1002 30.7178L86.0694 31.0875L86.0386 31.4572C84.6534 37.6193 80.1901 42.1793 73.5105 41.8095H73.1719H72.8333C65.969 41.5014 67.385 36.6026 57.5041 36.1404L57.0424 36.048L56.5807 35.9556Z" stroke="#231F20" stroke-width="0.216" stroke-miterlimit="22.926" stroke-linejoin="bevel"/>
<path fill-rule="evenodd" clip-rule="evenodd" d="M56.5807 35.9556L56.4268 39.0058L56.8885 39.0982L57.3502 39.1906C67.2311 39.6528 65.8151 44.5517 72.6794 44.8598H73.018H73.3566C80.1285 45.2911 84.8073 40.3923 85.9155 34.1377L85.9463 33.768L86.1002 30.7178L86.0694 31.0875L86.0386 31.4572C84.6534 37.6193 80.1901 42.1793 73.5105 41.8095H73.1719H72.8333C65.969 41.5014 67.385 36.6026 57.5041 36.1404L57.0424 36.048L56.5807 35.9556Z" fill="white"/>
<path d="M56.5807 35.9556L56.4268 39.0058L56.8885 39.0982L57.3502 39.1906C67.2311 39.6528 65.8151 44.5517 72.6794 44.8598H73.018H73.3566C80.1285 45.2911 84.8073 40.3923 85.9155 34.1377L85.9463 33.768L86.1002 30.7178L86.0694 31.0875L86.0386 31.4572C84.6534 37.6193 80.1901 42.1793 73.5105 41.8095H73.1719H72.8333C65.969 41.5014 67.385 36.6026 57.5041 36.1404L57.0424 36.048L56.5807 35.9556Z" fill="#E3E3E3" stroke="#231F20" stroke-width="0.55" stroke-miterlimit="22.926" stroke-linejoin="bevel"/>
<path fill-rule="evenodd" clip-rule="evenodd" d="M59.991 26.5276C58.8521 29.6703 57.7131 32.813 56.5742 35.9556C59.0983 36.5102 61.0375 36.3253 63.3769 37.2497C65.9934 38.2664 68.3328 41.2858 71.1954 41.6556C74.5199 42.0869 78.7061 41.6864 80.984 39.7145C84.2468 36.9107 86.6786 32.7205 85.9706 28.9308C85.5089 26.466 80.7377 24.8639 77.598 24.5249C74.2428 24.1552 71.0108 26.2811 67.6556 26.6201C64.8852 26.8974 62.7921 26.6817 59.991 26.5276Z" fill="white"/>
<path d="M59.991 26.5276C58.8521 29.6703 57.7131 32.813 56.5742 35.9556C59.0983 36.5102 61.0375 36.3253 63.3769 37.2497C65.9934 38.2664 68.3328 41.2858 71.1954 41.6556C74.5199 42.0869 78.7061 41.6864 80.984 39.7145C84.2468 36.9107 86.6786 32.7205 85.9706 28.9308C85.5089 26.466 80.7377 24.8639 77.598 24.5249C74.2428 24.1552 71.0108 26.2811 67.6556 26.6201C64.8852 26.8974 62.7921 26.6817 59.991 26.5276Z" fill="#E3E3E3" stroke="#231F20" stroke-width="0.5" stroke-miterlimit="22.926" stroke-linejoin="bevel"/>
<path fill-rule="evenodd" clip-rule="evenodd" d="M81.8479 30.9956C84.4336 31.8891 86.0034 34.1075 85.357 35.9561C84.7106 37.8047 82.125 38.6058 79.5393 37.7431C76.9537 36.8496 75.3838 34.6312 75.9994 32.7826C76.6151 30.934 79.2931 30.1021 81.8479 30.9956ZM82.5867 28.8081C86.8345 30.2561 89.4509 33.9226 88.4044 36.9728C87.3578 40.0231 83.0792 41.3479 78.8313 39.8998C74.5835 38.4517 71.9978 34.7853 73.0136 31.735C74.0602 28.6848 78.3388 27.36 82.5867 28.8081Z" fill="white"/>
<path d="M81.8479 30.9956C84.4336 31.8891 86.0034 34.1075 85.357 35.9561C84.7106 37.8047 82.125 38.6058 79.5393 37.7431C76.9537 36.8496 75.3838 34.6312 75.9994 32.7826C76.6151 30.934 79.2931 30.1021 81.8479 30.9956ZM82.5867 28.8081C86.8345 30.2561 89.4509 33.9226 88.4044 36.9728C87.3578 40.0231 83.0792 41.3479 78.8313 39.8998C74.5835 38.4517 71.9978 34.7853 73.0136 31.735C74.0602 28.6848 78.3388 27.36 82.5867 28.8081Z" fill="#E3E3E3" stroke="#231F20" stroke-width="0.5" stroke-miterlimit="22.926"/>
<path fill-rule="evenodd" clip-rule="evenodd" d="M82.0986 41.9948C85.8232 40.5159 89.5478 39.0062 93.3031 37.5273C93.9495 32.9674 93.1184 30.4409 90.1634 31.1187C85.3923 32.1971 83.2068 36.5722 82.0986 41.9948Z" fill="white"/>
<path d="M82.0986 41.9948C85.8232 40.5159 89.5478 39.0062 93.3031 37.5273C93.9495 32.9674 93.1184 30.4409 90.1634 31.1187C85.3923 32.1971 83.2068 36.5722 82.0986 41.9948Z" stroke="#231F20" stroke-width="0.216" stroke-miterlimit="22.926" stroke-linejoin="bevel"/>
<path fill-rule="evenodd" clip-rule="evenodd" d="M160.772 40.023L91.3902 31.0264C85.8803 31.0572 83.11 36.8187 82.2173 41.5019L82.125 42.0257L151.507 51.0223L151.599 50.4986C152.492 45.8462 155.139 40.2695 160.556 39.9922L160.772 40.023Z" fill="white"/>
<path d="M160.772 40.023L91.3902 31.0264C85.8803 31.0572 83.11 36.8187 82.2173 41.5019L82.125 42.0257L151.507 51.0223L151.599 50.4986C152.492 45.8462 155.139 40.2695 160.556 39.9922L160.772 40.023Z" stroke="#231F20" stroke-width="0.216" stroke-miterlimit="22.926" stroke-linejoin="bevel"/>
<path fill-rule="evenodd" clip-rule="evenodd" d="M151.504 51.0221L151.843 50.8989C155.352 49.4816 158.83 48.0951 162.339 46.7086L162.678 46.5546L162.739 46.1232C164.524 34.4769 152.458 41.286 151.596 50.5291L151.504 51.0221Z" fill="white"/>
<path d="M151.504 51.0221L151.843 50.8989C155.352 49.4816 158.83 48.0951 162.339 46.7086L162.678 46.5546L162.739 46.1232C164.524 34.4769 152.458 41.286 151.596 50.5291L151.504 51.0221Z" stroke="#231F20" stroke-width="0.216" stroke-miterlimit="22.926" stroke-linejoin="bevel"/>
<path fill-rule="evenodd" clip-rule="evenodd" d="M160.772 40.023L91.3902 31.0264C85.8803 31.0572 83.11 36.8187 82.2173 41.5019L82.125 42.0257L151.507 51.0223L151.599 50.4986C152.492 45.8462 155.139 40.2695 160.556 39.9922L160.772 40.023Z" fill="white"/>
<path d="M160.772 40.023L91.3902 31.0264C85.8803 31.0572 83.11 36.8187 82.2173 41.5019L82.125 42.0257L151.507 51.0223L151.599 50.4986C152.492 45.8462 155.139 40.2695 160.556 39.9922L160.772 40.023Z" fill="#E3E3E3" stroke="#231F20" stroke-width="0.5" stroke-miterlimit="22.926" stroke-linejoin="bevel"/>
<path fill-rule="evenodd" clip-rule="evenodd" d="M151.504 51.0221L151.843 50.8989C155.352 49.4816 158.83 48.0951 162.339 46.7086L162.678 46.5546L162.739 46.1232C164.524 34.4769 152.458 41.286 151.596 50.5291L151.504 51.0221Z" fill="white"/>
<path d="M151.504 51.0221L151.843 50.8989C155.352 49.4816 158.83 48.0951 162.339 46.7086L162.678 46.5546L162.739 46.1232C164.524 34.4769 152.458 41.286 151.596 50.5291L151.504 51.0221Z" fill="#E3E3E3" stroke="#231F20" stroke-width="0.5" stroke-miterlimit="22.926" stroke-linejoin="bevel"/>
<path fill-rule="evenodd" clip-rule="evenodd" d="M61.9609 30.0709C70.3027 26.1272 77.4749 30.1634 84.4623 33.4293C83.8774 34.9082 83.4157 35.7709 82.7385 37.1574C73.8118 34.4152 67.2554 31.9196 61.1914 34.0455C61.6223 32.6282 61.5608 31.4882 61.9609 30.0709Z" fill="white"/>
<path d="M429.525 149.924C441.499 142.005 453.904 134.703 458.706 116.833L429.525 149.924ZM15.3292 42.4261C22.3474 83.3115 27.9804 124.474 36.353 165.144C39.7697 181.751 46.6956 186.218 52.544 186.619C172.469 194.784 375.719 234.406 430.88 210.528C437.775 156.671 417.921 112.52 420.753 62.6993L15.3292 42.4261ZM61.9632 30.0711C70.305 26.1273 77.4771 30.1635 84.4645 33.4294C83.8796 34.9083 83.4179 35.771 82.7407 37.1575C73.8141 34.4154 67.2576 31.9197 61.1937 34.0456C61.6246 32.6284 61.563 31.4884 61.9632 30.0711Z" fill="black"/>
<path d="M46.0799 32.3819L3.07812 28.0376M429.525 149.924C441.499 142.005 453.904 134.703 458.706 116.833L429.525 149.924ZM15.3292 42.4261C22.3474 83.3115 27.9804 124.474 36.353 165.144C39.7697 181.751 46.6956 186.218 52.544 186.619C172.469 194.784 375.719 234.406 430.88 210.528C437.775 156.671 417.921 112.52 420.753 62.6993L15.3292 42.4261ZM61.9632 30.0711C70.305 26.1273 77.4771 30.1635 84.4645 33.4294C83.8796 34.9083 83.4179 35.771 82.7407 37.1575C73.8141 34.4154 67.2576 31.9197 61.1937 34.0456C61.6246 32.6284 61.563 31.4884 61.9632 30.0711Z" stroke="#231F20" stroke-width="0.5" stroke-miterlimit="22.926"/>
</svg>
