<svg width="73" height="73" viewBox="0 0 73 73" xmlns="http://www.w3.org/2000/svg">
<path d="M68.1333 3.6499H12.1667C9.4789 3.6499 7.3 5.8288 7.3 8.51657V47.4499H1.21667C0.544762 47.4499 0 47.9947 0 48.6666C0 51.3543 2.1789 53.5332 4.86667 53.5332H40.15V68.1332C40.1502 68.8051 40.6949 69.3497 41.367 69.3496C41.6895 69.3496 41.9987 69.2214 42.2269 68.9934L48.6667 62.5536L55.1065 68.9934C55.3346 69.2215 55.6439 69.3499 55.9667 69.3499C56.1267 69.3504 56.285 69.319 56.4327 69.2574C56.8872 69.069 57.1835 68.6252 57.1833 68.1332V53.5332H60.8333C63.5211 53.5332 65.7 51.3543 65.7 48.6666V9.73324H71.7833C72.4552 9.73324 73 9.18847 73 8.51657C73 5.8288 70.8211 3.6499 68.1333 3.6499ZM63.2667 8.51657V47.4499H58.4V49.8832H62.9394C62.5049 50.6357 61.7022 51.0994 60.8333 51.0999H57.1833V49.8832H54.75V65.1962L49.5269 59.973C49.0517 59.4981 48.2816 59.4981 47.8065 59.973L42.5833 65.1962V49.8832H40.15V51.0999H4.86667C3.99781 51.0994 3.19512 50.6357 2.76062 49.8832H8.51667H38.9333V47.4499H9.73333V8.51657C9.73333 7.17261 10.8227 6.08324 12.1667 6.08324H63.9431C63.5053 6.81978 63.2717 7.65973 63.2667 8.51657ZM66.0273 7.2999C66.7004 6.13677 68.189 5.73953 69.3523 6.4128C69.7205 6.62587 70.0263 6.93186 70.2394 7.2999H66.0273Z"/>
<path d="M60.1362 41.7256L58.5777 38.9333L60.1423 36.1435C60.472 35.558 60.2648 34.8161 59.6794 34.4864C59.6499 34.4698 59.6196 34.4543 59.5887 34.4402L56.6846 33.1104L56.3098 29.9349C56.2306 29.2677 55.6253 28.791 54.9581 28.8703C54.9271 28.8739 54.8962 28.8788 54.8656 28.8849L51.7291 29.5066L49.5598 27.1572C49.0742 26.664 48.2807 26.6578 47.7875 27.1434C47.7828 27.1479 47.7782 27.1527 47.7737 27.1572L45.6044 29.5066L42.4678 28.8849C41.8087 28.7545 41.1685 29.1833 41.0382 29.8424C41.0321 29.873 41.0273 29.9038 41.0236 29.9349L40.6489 33.1104L37.7447 34.4426C37.1338 34.7223 36.8652 35.4444 37.1449 36.0553C37.159 36.0862 37.1744 36.1164 37.1911 36.1459L38.7557 38.9333L37.1911 41.7231C36.8614 42.3087 37.0687 43.0505 37.654 43.3802C37.6836 43.3968 37.7138 43.4123 37.7447 43.4265L40.6489 44.7587L41.0236 47.9367C41.1028 48.6039 41.7081 49.0805 42.3753 49.0012C42.4064 48.9976 42.4372 48.9927 42.4678 48.9866L45.6044 48.3649L47.7737 50.7143C48.2301 51.2075 48.9998 51.2373 49.493 50.7811C49.5161 50.7596 49.5383 50.7374 49.5598 50.7143L51.7291 48.3649L54.8656 48.9866C55.1981 49.0546 55.5438 48.9786 55.8171 48.7774C56.089 48.5769 56.2653 48.2723 56.3037 47.9367L56.6785 44.7612L59.5827 43.4289C60.1936 43.1492 60.4622 42.4271 60.1825 41.8162C60.1683 41.7853 60.1528 41.7551 60.1362 41.7256ZM56.1225 39.5271L57.3744 41.7609L55.0481 42.8279C54.6625 43.0049 54.3969 43.3701 54.3473 43.7915L54.048 46.338L51.5332 45.8403C51.1188 45.7543 50.6897 45.893 50.4041 46.2054L48.6667 48.0888L46.9293 46.2078C46.6991 45.9588 46.3754 45.8172 46.0363 45.8172C45.9569 45.8168 45.8778 45.825 45.8002 45.8416L43.2854 46.3392L42.9861 43.7927C42.9365 43.3713 42.671 43.0061 42.2853 42.8291L39.959 41.7621L41.211 39.5283C41.4202 39.1572 41.4253 38.7066 41.211 38.3384V38.3432L39.959 36.1094L42.2853 35.0424C42.671 34.8654 42.9365 34.5003 42.9861 34.0788L43.2854 31.5323L45.8002 32.03C46.2145 32.115 46.6431 31.9764 46.9293 31.665L48.6667 29.7779L50.4041 31.6589C50.6896 31.9714 51.1188 32.1101 51.5332 32.0239L54.048 31.5263L54.3473 34.0727C54.3969 34.4942 54.6625 34.8593 55.0481 35.0363L57.3744 36.1034L56.1225 38.3372C55.9153 38.7067 55.9153 39.1575 56.1225 39.5271Z"/>
<path d="M48.6666 32.8501C45.3069 32.8501 42.5833 35.5738 42.5833 38.9334C42.5872 42.2914 45.3086 45.0127 48.6666 45.0168C52.0263 45.0168 54.7499 42.2931 54.7499 38.9334C54.7499 35.5738 52.0263 32.8501 48.6666 32.8501ZM48.6666 42.5834C46.6507 42.5834 45.0166 40.9493 45.0166 38.9334C45.0166 36.9176 46.6507 35.2834 48.6666 35.2834C50.6825 35.2834 52.3166 36.9176 52.3166 38.9334C52.3166 40.9493 50.6825 42.5834 48.6666 42.5834Z"/>
<path d="M46.2333 10.9502H26.7666V13.3835H46.2333V10.9502Z"/>
<path d="M58.4001 18.25H14.6001V20.6833H58.4001V18.25Z"/>
<path d="M58.4001 23.1167H14.6001V25.55H58.4001V23.1167Z"/>
<path d="M31.6333 38.9331H15.8167V41.3664H31.6333V38.9331Z"/>
</svg>
