<svg width="61" height="80" viewBox="0 0 61 80" fill="none" xmlns="http://www.w3.org/2000/svg">
<path fill-rule="evenodd" clip-rule="evenodd" d="M10 1H57.3333C58.4379 1 59.3333 1.89543 59.3333 3V70.3333C59.3333 71.4379 58.4379 72.3333 57.3333 72.3333H53.6668V73.3333H57.3333C58.9902 73.3333 60.3333 71.9902 60.3333 70.3333V3C60.3333 1.34315 58.9902 0 57.3333 0H10C8.34315 0 7 1.34315 7 3V6.66667H8V3C8 1.89543 8.89543 1 10 1Z" fill="#F57E23"/>
<path fill-rule="evenodd" clip-rule="evenodd" d="M41.6233 7L53 18.4867V19.9999L40 7H41.6233ZM4 7H40L40.0001 19.9999L53 19.9999L53 76C53 78.2091 51.2091 80 49 80H4C1.79086 80 0 78.2091 0 76V11C0 8.79086 1.79086 7 4 7ZM43 40H10V42H43V40ZM10 47H43V49H10V47ZM43 54H10V56H43V54ZM10 61H43V63H10V61ZM43 68H10V70H43V68Z" fill="#F57E23"/>
</svg>
