<svg width="70" height="65" viewBox="0 0 70 65" xmlns="http://www.w3.org/2000/svg">
<path fill-rule="evenodd" clip-rule="evenodd" d="M57.974 12.559C57.9735 12.5453 57.9729 12.5316 57.9719 12.5179C57.9676 12.4635 57.9617 12.4101 57.95 12.3572C57.95 12.3572 57.95 12.3572 57.95 12.3567C57.9382 12.3038 57.9217 12.2514 57.903 12.2005C57.8982 12.1877 57.8934 12.175 57.888 12.1623C57.8683 12.1138 57.8458 12.0662 57.8202 12.0202C57.8186 12.0178 57.8175 12.0153 57.8159 12.0129C57.7881 11.9649 57.7561 11.9193 57.7214 11.8747C57.7128 11.8635 57.7038 11.8527 57.6947 11.8414C57.6578 11.7973 57.6194 11.7547 57.5761 11.715L45.2042 0.367381C45.1609 0.327703 45.1145 0.292435 45.0664 0.258636C45.0541 0.250309 45.0418 0.241491 45.0295 0.233654C44.9809 0.201814 44.9318 0.172424 44.88 0.147442C44.8763 0.145483 44.8725 0.144503 44.8693 0.142544C44.8202 0.119031 44.7689 0.0989478 44.7171 0.0808237C44.7027 0.0759254 44.6888 0.0715167 44.6739 0.0671082C44.6183 0.0499638 44.5622 0.0347787 44.504 0.0240022C44.5035 0.0240022 44.503 0.0240022 44.503 0.0240022C44.4458 0.0137155 44.3876 0.00783745 44.3289 0.00391873C44.3139 0.00342889 44.2989 0.0024492 44.284 0.00195936C44.2685 0.00146953 44.253 0 44.2375 0H13.2617C12.5066 0 11.8945 0.561357 11.8945 1.25399V54.9278C11.8945 55.6204 12.5066 56.1818 13.2617 56.1818H33.8453V62.9504C33.8453 63.4065 34.1156 63.8267 34.5508 64.0477C34.9866 64.2686 35.518 64.2554 35.9394 64.0129L41.1464 61.0165L46.3535 64.0129C46.5751 64.1402 46.8277 64.2044 47.0803 64.2044C47.3078 64.2044 47.5359 64.1525 47.742 64.0482C48.1773 63.8272 48.4475 63.407 48.4475 62.9504V56.1818H56.609C57.3641 56.1818 57.9761 55.6204 57.9761 54.9278V12.6016C57.9761 12.5874 57.9745 12.5732 57.974 12.559ZM45.6047 4.2817L53.3085 11.3477H45.6047V4.2817ZM33.1708 38.7322C33.0747 38.4927 32.9182 38.1013 32.9145 37.9411C33.0213 37.8196 33.3919 37.6046 33.6189 37.4733C34.1059 37.1912 34.6582 36.8708 35.0587 36.3702C35.463 35.8642 35.6275 35.2798 35.7727 34.7645C35.8363 34.5392 35.9388 34.1752 36.0264 34.0376C36.0745 34.0283 36.1754 34.015 36.365 34.015C36.5172 34.015 36.6876 34.0229 36.8681 34.0312C37.0753 34.0405 37.2889 34.0503 37.5122 34.0503C38.0046 34.0503 38.4019 33.9994 38.7624 33.8891C39.392 33.6971 39.8957 33.3253 40.34 32.9971C40.5857 32.8159 40.9969 32.5122 41.14 32.4936C41.2965 32.5122 41.7072 32.8159 41.9528 32.9971C42.3972 33.3253 42.9013 33.6971 43.531 33.8891C43.8915 33.9994 44.2883 34.0503 44.7812 34.0503C45.0039 34.0503 45.2181 34.0405 45.4247 34.0312C45.6053 34.0229 45.7756 34.015 45.9284 34.015C46.1179 34.015 46.2183 34.0278 46.2669 34.0376C46.3545 34.1752 46.4571 34.5392 46.5201 34.7645C46.6654 35.2798 46.8304 35.8642 47.2347 36.3702C47.6347 36.8708 48.1869 37.1907 48.6745 37.4733C48.9009 37.6051 49.2715 37.8196 49.3784 37.9411C49.3746 38.1013 49.2181 38.4927 49.1225 38.7322C48.9191 39.2402 48.6889 39.8162 48.6889 40.4545C48.6889 41.0927 48.9191 41.6688 49.122 42.1773C49.2181 42.4168 49.3746 42.8082 49.3784 42.9683C49.2715 43.0898 48.9009 43.3044 48.6745 43.4361C48.1869 43.7183 47.6347 44.0386 47.2347 44.5393C46.8304 45.0453 46.6654 45.6297 46.5201 46.145C46.4571 46.3698 46.354 46.7342 46.2669 46.8719C46.2183 46.8812 46.1179 46.8944 45.9284 46.8944C45.7756 46.8944 45.6053 46.8866 45.4247 46.8783C45.2181 46.8689 45.0039 46.8591 44.7812 46.8591C44.2883 46.8591 43.8915 46.9101 43.531 47.0203C42.9013 47.2123 42.3972 47.5846 41.9528 47.9123C41.7109 48.0916 41.3072 48.3889 41.1464 48.4154C40.9857 48.3889 40.5824 48.0916 40.3405 47.9123C39.8957 47.5846 39.392 47.2123 38.7624 47.0203C38.4019 46.9101 38.0046 46.8591 37.5122 46.8591C37.2895 46.8591 37.0753 46.8689 36.8681 46.8783C36.6881 46.8866 36.5177 46.8944 36.365 46.8944C36.1754 46.8944 36.075 46.8812 36.0264 46.8719C35.9388 46.7342 35.8363 46.3703 35.7727 46.145C35.628 45.6297 35.463 45.0453 35.0587 44.5393C34.6587 44.0386 34.1065 43.7183 33.6189 43.4361C33.3924 43.3049 33.0218 43.0898 32.915 42.9683C32.9187 42.8087 33.0752 42.4168 33.1708 42.1773C33.3743 41.6693 33.6045 41.0932 33.6045 40.455C33.6045 39.8162 33.3738 39.2402 33.1708 38.7322ZM45.7131 60.6834L41.8733 58.4738C41.4289 58.2186 40.8639 58.2186 40.4196 58.4738L36.5797 60.6834V49.3985C36.725 49.3946 36.8675 49.3897 37.0059 49.3833C37.1869 49.3745 37.3578 49.3666 37.5122 49.3666C37.7546 49.3666 37.8582 49.3872 37.8983 49.3995C38.0612 49.4494 38.3741 49.6806 38.6257 49.8663C39.2639 50.3375 40.058 50.9239 41.1464 50.9239C42.2348 50.9239 43.029 50.3375 43.6672 49.8663C43.9187 49.6806 44.2317 49.4494 44.394 49.4C44.4346 49.3877 44.5382 49.3671 44.7807 49.3671C44.935 49.3671 45.1059 49.375 45.287 49.3833C45.4253 49.3897 45.5679 49.3951 45.7126 49.3985V60.6834H45.7131ZM48.4475 53.6738V48.3879C48.8539 47.8815 49.0237 47.2819 49.1674 46.7724C49.2427 46.505 49.3458 46.1391 49.4398 46.022C49.5332 45.9045 49.8809 45.7031 50.1346 45.5562C50.8075 45.1663 51.6449 44.6808 51.9776 43.7629C52.3066 42.8572 51.9643 42.0014 51.6892 41.3137C51.5643 41.0016 51.4227 40.6475 51.4227 40.4545C51.4227 40.2615 51.5643 39.9078 51.6892 39.5958C51.9643 38.9081 52.3066 38.0518 51.9776 37.1461C51.6449 36.2286 50.8075 35.7432 50.1346 35.3533C49.8809 35.2063 49.5332 35.0045 49.4398 34.8879C49.3458 34.7704 49.2427 34.4045 49.1674 34.137C48.9709 33.439 48.7263 32.57 47.8889 32.0067C47.2224 31.559 46.4507 31.5071 45.9278 31.5071C45.7067 31.5071 45.4931 31.5168 45.287 31.5266C45.1059 31.535 44.935 31.5428 44.7812 31.5428C44.5382 31.5428 44.4346 31.5222 44.3945 31.51C44.2322 31.4605 43.9192 31.2293 43.6677 31.0432C43.029 30.5724 42.2348 29.9861 41.1464 29.9861C40.0585 29.9861 39.2639 30.5724 38.6257 31.0432C38.3741 31.2288 38.0612 31.4605 37.8988 31.51C37.8588 31.5222 37.7546 31.5428 37.5122 31.5428C37.3583 31.5428 37.1869 31.535 37.0059 31.5262C36.7997 31.5168 36.5866 31.5071 36.365 31.5071C35.8427 31.5071 35.071 31.559 34.405 32.0067C33.5671 32.57 33.3219 33.439 33.1254 34.137C33.0501 34.4045 32.947 34.7704 32.8536 34.8874C32.7596 35.0045 32.4119 35.2063 32.1582 35.3533C31.4853 35.7432 30.6485 36.2286 30.3152 37.1461C29.9862 38.0523 30.3286 38.9081 30.6036 39.5958C30.7286 39.9078 30.8701 40.2615 30.8701 40.4545C30.8701 40.6475 30.7286 41.0016 30.6036 41.3137C30.3286 42.0014 29.9862 42.8572 30.3152 43.7634C30.6485 44.6808 31.4859 45.1663 32.1582 45.5562C32.4125 45.7031 32.7596 45.9049 32.8536 46.022C32.947 46.1391 33.0501 46.505 33.1254 46.7724C33.2691 47.2819 33.4394 47.8819 33.8459 48.3879V53.6738H14.6289V2.50798H42.8703V12.6016C42.8703 13.2943 43.4824 13.8556 44.2375 13.8556H55.2418V53.6738H48.4475Z" />
<path fill-rule="evenodd" clip-rule="evenodd" d="M19.9424 13.8556H37.5567C38.3113 13.8556 38.9239 13.2943 38.9239 12.6017C38.9239 11.909 38.3113 11.3477 37.5567 11.3477H19.9424C19.1872 11.3477 18.5752 11.909 18.5752 12.6017C18.5752 13.2943 19.1878 13.8556 19.9424 13.8556Z" />
<path fill-rule="evenodd" clip-rule="evenodd" d="M50.0814 17.6775H19.9424C19.1872 17.6775 18.5752 18.2388 18.5752 18.9315C18.5752 19.6241 19.1872 20.1855 19.9424 20.1855H50.0814C50.8365 20.1855 51.4486 19.6241 51.4486 18.9315C51.4486 18.2388 50.8365 17.6775 50.0814 17.6775Z" />
<path fill-rule="evenodd" clip-rule="evenodd" d="M44.6126 24.0071H19.9424C19.1872 24.0071 18.5752 24.5689 18.5752 25.2611C18.5752 25.9537 19.1872 26.5151 19.9424 26.5151H44.6126C45.3678 26.5151 45.9798 25.9537 45.9798 25.2611C45.9798 24.5689 45.3678 24.0071 44.6126 24.0071Z" />
</svg>
