<svg width="218" height="313" viewBox="0 0 218 313" fill="none" xmlns="http://www.w3.org/2000/svg">
<g clip-path="url(#clip0)">
<path fill-rule="evenodd" clip-rule="evenodd" d="M104.328 16.0781C101.59 16.1132 98.8857 16.2832 96.1546 16.5747C93.5749 16.8995 91.0388 17.1702 88.476 17.5625C79.8558 18.7893 71.9972 23.0506 66.2717 29.5967C62.1581 34.299 59.6091 39.2498 58.1755 45.3378L51.8925 71.8945C51.7713 71.8679 51.6805 71.8479 51.5593 71.8213C51.4684 71.8013 51.3473 71.7747 51.2498 71.7851C51.0614 71.7755 50.8663 71.7963 50.7015 71.8238C50.5367 71.8513 50.3282 71.9329 50.1804 72.0278C49.824 72.2043 49.5083 72.4853 49.2464 72.81C48.9342 73.2192 48.7061 73.6788 48.5084 74.145C48.2469 74.7565 48.0763 75.388 47.8991 76.0499C46.9166 80.2301 45.9341 84.4103 44.9213 88.5838C44.8478 88.918 44.8046 89.259 44.8589 89.5895C45.6455 97.8539 43.7006 106.123 39.2979 113.151C39.1099 113.428 38.9759 113.749 38.9024 114.084C37.9199 118.264 36.9307 122.474 35.9482 126.655C35.8747 126.989 35.7945 127.353 35.7513 127.694C35.7148 128.005 35.6783 128.315 35.6417 128.626C35.6257 129.132 35.603 129.669 35.7148 130.171C35.7861 130.569 35.9549 130.957 36.1976 131.297C36.4168 131.6 36.7098 131.855 37.0599 131.996C37.1441 132.046 37.235 132.066 37.3561 132.093C37.4772 132.12 37.5681 132.14 37.6893 132.166L18.6969 212.633C16.8454 220.477 14.9873 228.351 13.1358 236.195C12.4976 238.954 11.9738 241.769 11.6688 244.601C11.4136 247.062 11.3334 249.593 11.5829 252.068C11.778 254.214 12.1748 256.308 12.8407 258.334C13.5066 260.36 14.4112 262.311 15.5746 264.096C16.738 265.881 18.0929 267.517 19.6023 269.027C21.3813 270.756 23.3281 272.299 25.3689 273.703C27.6926 275.266 30.1471 276.665 32.6587 277.95C35.8032 279.534 39.0484 280.948 42.3069 282.301C49.5006 285.253 56.7743 287.839 64.2191 290.081C68.5978 291.394 72.9797 292.549 77.4118 293.619C81.8506 294.658 86.3162 295.576 90.8084 296.373C98.4537 297.703 106.155 298.632 113.9 299.22C117.43 299.486 120.949 299.654 124.478 299.634C127.277 299.612 130.102 299.469 132.884 299.093C135.336 298.772 137.767 298.255 140.124 297.499C142.145 296.828 144.108 295.985 145.936 294.89C147.765 293.795 149.451 292.477 150.96 290.961C152.468 289.445 153.767 287.724 154.867 285.895C156.163 283.759 157.229 281.508 158.12 279.188C159.115 276.539 159.911 273.783 160.58 271.032C162.431 263.188 164.29 255.314 166.141 247.47C175.545 207.582 184.98 167.702 194.384 127.814C198.134 111.914 201.877 96.0442 205.626 80.1439C207.06 74.056 206.981 68.4955 205.42 62.4502C203.207 54.0314 198.089 46.6941 190.923 41.7418C188.798 40.2871 186.636 38.8561 184.467 37.4555C182.16 35.9608 179.827 34.5877 177.369 33.3465C166.429 26.9275 154.503 22.1074 142.162 19.1713C129.815 16.2656 116.986 15.2611 104.328 16.0781Z" fill="white"/>
<path d="M104.328 16.0781C101.59 16.1132 98.8857 16.2832 96.1546 16.5747C93.5748 16.8995 91.0388 17.1702 88.476 17.5625C79.8558 18.7893 71.9972 23.0506 66.2717 29.5967C62.1581 34.299 59.6091 39.2498 58.1755 45.3378L51.8925 71.8945C51.7713 71.8679 51.6805 71.8479 51.5593 71.8213C51.4684 71.8013 51.3473 71.7747 51.2498 71.7851C51.0614 71.7755 50.8663 71.7963 50.7015 71.8238C50.5367 71.8513 50.3282 71.9329 50.1804 72.0278C49.824 72.2043 49.5083 72.4853 49.2464 72.81C48.9342 73.2192 48.7061 73.6788 48.5084 74.145C48.2469 74.7565 48.0763 75.388 47.8991 76.0499C46.9166 80.2301 45.9341 84.4103 44.9213 88.5838C44.8478 88.918 44.8046 89.259 44.8589 89.5895C45.6455 97.8539 43.7006 106.123 39.2979 113.151C39.1099 113.428 38.9759 113.749 38.9024 114.084C37.9199 118.264 36.9307 122.474 35.9482 126.655C35.8747 126.989 35.7945 127.353 35.7513 127.694C35.7148 128.005 35.6783 128.315 35.6417 128.626C35.6257 129.132 35.603 129.669 35.7148 130.171C35.7861 130.569 35.9549 130.957 36.1976 131.297C36.4168 131.6 36.7098 131.855 37.0599 131.996C37.1441 132.046 37.235 132.066 37.3561 132.093C37.4772 132.12 37.5681 132.14 37.6893 132.166L18.6969 212.633C16.8454 220.477 14.9873 228.351 13.1358 236.195C12.4976 238.954 11.9738 241.769 11.6688 244.601C11.4136 247.062 11.3334 249.593 11.5829 252.068C11.778 254.214 12.1748 256.308 12.8407 258.334C13.5066 260.36 14.4112 262.311 15.5746 264.096C16.738 265.881 18.0929 267.517 19.6023 269.027C21.3813 270.756 23.3281 272.299 25.3689 273.703C27.6926 275.266 30.1471 276.665 32.6587 277.95C35.8033 279.534 39.0484 280.948 42.3069 282.301C49.5006 285.253 56.7743 287.839 64.2191 290.081C68.5978 291.394 72.9797 292.549 77.4118 293.619C81.8506 294.658 86.3162 295.576 90.8084 296.373C98.4537 297.703 106.155 298.632 113.9 299.22C117.43 299.486 120.949 299.654 124.478 299.634C127.277 299.612 130.102 299.469 132.884 299.093C135.336 298.772 137.767 298.255 140.124 297.499C142.145 296.828 144.108 295.985 145.936 294.89C147.765 293.795 149.451 292.477 150.96 290.961C152.468 289.445 153.767 287.724 154.867 285.895C156.163 283.759 157.229 281.508 158.12 279.188C159.115 276.539 159.911 273.783 160.58 271.032C162.431 263.188 164.29 255.314 166.141 247.47C175.545 207.582 184.98 167.702 194.384 127.814C198.134 111.914 201.877 96.0442 205.626 80.1439C207.06 74.056 206.981 68.4955 205.42 62.4502C203.207 54.0314 198.089 46.6941 190.923 41.7418C188.798 40.2871 186.636 38.8561 184.467 37.4555C182.16 35.9608 179.827 34.5877 177.369 33.3465C166.429 26.9275 154.503 22.1074 142.162 19.1713C129.815 16.2656 116.986 15.2611 104.328 16.0781Z" fill="#3A3A3A" stroke="black" stroke-miterlimit="22.926" stroke-linecap="round" stroke-linejoin="round"/>
<path d="M196.054 88.584C190.329 114.626 183.822 140.465 176.832 166.197C169.841 191.929 162.342 217.518 154.432 242.953C153.736 245.252 152.889 247.519 151.842 249.678C150.796 251.838 149.575 253.926 148.054 255.79C146.963 257.143 145.703 258.395 144.356 259.469C143.009 260.542 141.5 261.485 139.963 262.262C138.182 263.145 136.313 263.849 134.416 264.388C132.489 264.92 130.559 265.324 128.588 265.623C98.9341 270.094 68.6934 262.936 44.1627 245.692C42.2666 244.352 40.4276 242.896 38.7497 241.285C37.0719 239.673 35.5553 237.907 34.3109 235.913C33.3666 234.431 32.6005 232.861 32.0126 231.202C31.4247 229.544 31.0082 227.828 30.7868 226.091C30.5044 224.053 30.4474 222.002 30.5485 219.954C30.6496 217.905 30.8785 215.853 31.1916 213.851C35.4868 187.526 40.2363 161.302 45.4771 135.153C50.7178 109.004 56.4365 82.9921 62.9796 57.1297C64.5612 50.9468 66.5431 44.8201 69.8381 39.3644C71.0394 37.3666 72.4459 35.4459 74.1388 33.8112C74.8644 33.1105 75.6741 32.4603 76.531 31.8841C77.714 31.1248 78.9914 30.5137 80.2621 29.9329C86.5284 27.1373 93.1015 24.8234 99.9022 23.9293C103.074 23.5116 106.3 23.4244 109.463 23.7693C112.625 24.1142 115.779 24.9349 118.667 26.2389C132.055 32.2087 145.396 35.3645 160.05 36.006C163.23 36.1315 166.41 36.8307 169.405 37.9353C172.401 39.0399 175.243 40.5566 177.897 42.3505C183.595 46.1836 188.46 51.2035 192.791 56.4881C193.664 57.572 194.537 58.6559 195.249 59.8955C195.755 60.7713 196.18 61.725 196.538 62.6957C197.352 64.9135 197.726 67.2574 197.911 69.5918C198.382 75.9711 197.423 82.3545 196.054 88.584ZM155.442 27.5065C156.899 27.6675 158.332 27.7915 159.796 27.9221C161.545 28.0519 163.268 28.3032 165.001 28.6524C168.339 29.3544 171.439 30.4182 174.506 31.9208C175.482 32.3903 176.428 32.8531 177.398 33.353C179.825 34.5875 182.189 35.9673 184.496 37.462C186.665 38.8626 188.827 40.2936 190.952 41.7483C198.088 46.694 203.236 54.0378 205.449 62.4567C207.047 68.4782 207.089 74.0624 205.655 80.1504C201.912 96.0202 198.163 111.921 194.413 127.821C185.009 167.708 175.574 207.589 166.17 247.476C164.319 255.32 162.46 263.194 160.609 271.038C159.971 273.797 159.181 276.522 158.149 279.194C157.258 281.515 156.215 283.802 154.896 285.901C153.766 287.723 152.466 289.445 150.989 290.968C149.48 292.484 147.787 293.832 145.965 294.897C144.137 295.992 142.174 296.834 140.153 297.505C137.796 298.261 135.365 298.778 132.913 299.099C130.131 299.475 127.306 299.618 124.507 299.64C120.978 299.661 117.465 299.462 113.929 299.226C106.178 298.669 98.5129 297.716 90.8374 296.379C86.3452 295.583 81.8796 294.665 77.4711 293.632C73.0322 292.592 68.6268 291.401 64.2784 290.094C56.8336 287.852 49.5598 285.266 42.3662 282.314C39.1077 280.961 35.8625 279.547 32.718 277.963C30.1997 276.709 27.7452 275.309 25.4282 273.717C23.3807 272.343 21.4339 270.8 19.6616 269.04C18.1522 267.53 16.7603 265.918 15.6036 264.102C14.4402 262.317 13.5356 260.366 12.8697 258.341C12.2038 256.315 11.8136 254.19 11.6119 252.075C11.3927 249.606 11.4662 247.105 11.7281 244.614C11.9962 241.806 12.5199 238.99 13.1884 236.239C15.0399 228.395 16.898 220.521 18.7495 212.677C28.1537 172.789 37.5579 132.902 46.9924 93.0213C50.6512 77.101 54.4009 61.2008 58.1439 45.3309C59.5776 39.243 62.1265 34.2922 66.2402 29.5898C71.996 23.0504 79.8848 18.7958 88.4747 17.5623C91.0308 17.2004 93.6038 16.906 96.1466 16.6049C98.8844 16.283 101.589 16.113 104.321 16.1083C105.41 16.0612 106.48 16.1052 107.557 16.1189C110.951 16.1325 114.222 16.5648 117.52 17.4492C119.233 17.8895 120.889 18.4447 122.518 19.1214C123.858 19.6708 125.204 20.1898 126.581 20.7155C131.25 22.4427 135.881 24.1937 140.737 25.3569C145.577 26.4527 150.513 26.9644 155.442 27.5065Z" fill="#5C5C5C" stroke="black" stroke-width="0.55" stroke-miterlimit="22.926" stroke-linecap="round" stroke-linejoin="round"/>
<path fill-rule="evenodd" clip-rule="evenodd" d="M72.4554 215.946C87.0448 219.918 101.778 223.381 116.581 226.38C127.161 228.515 135.819 229.718 141.604 228.823C151.044 227.331 152.84 220.175 159.893 193.724C165.589 172.295 174.696 138.235 183.608 102.031C188.655 81.3826 151.153 72.5961 130.715 67.7843C110.247 62.966 72.7779 54.0275 68.0938 74.7556C59.8481 111.107 52.7937 145.649 48.3029 167.376C42.7571 194.19 41.1738 201.392 48.9669 206.96C53.7491 210.337 62.0224 213.143 72.4554 215.946ZM195.755 88.5182C184.314 140.7 169.979 191.896 154.14 242.856C153.608 244.555 153.015 246.241 152.308 247.869C151.701 249.329 150.973 250.761 150.198 252.12C148.776 254.547 147.016 256.772 144.893 258.631C142.851 260.412 140.481 261.803 137.966 262.843C134.961 264.093 131.753 264.821 128.537 265.293C98.9506 269.747 68.8008 262.609 44.3239 245.409C42.9499 244.438 41.6195 243.413 40.3394 242.303C39.1368 241.274 38.0149 240.167 36.9735 238.983C35.2008 236.937 33.6767 234.626 32.6433 232.106C31.5628 229.511 31.0033 226.712 30.8207 223.932C30.6069 220.572 30.9044 217.197 31.4442 213.875C40.0951 161.239 50.1496 109.006 63.2424 57.2512C63.6838 55.5324 64.1488 53.8506 64.6507 52.1452C65.1126 50.622 65.6351 49.1122 66.2181 47.6157C67.2064 44.9978 68.3764 42.4198 69.7687 39.9862C70.9263 38.0426 72.2286 36.1627 73.824 34.5384C75.1775 33.1475 76.74 31.9619 78.4779 31.1335C80.4612 30.1997 82.4312 29.3267 84.4854 28.504C86.3681 27.7392 88.298 27.0485 90.2381 26.4557C93.6779 25.3961 97.192 24.5759 100.741 24.1773C103.899 23.8204 107.111 23.794 110.254 24.2301C113.087 24.6299 115.908 25.3774 118.537 26.5607C131.986 32.5437 145.356 35.7062 160.041 36.3543C162.904 36.4741 165.764 37.0392 168.484 37.9557C171.5 38.9691 174.355 40.425 177.022 42.1582C180.026 44.0929 182.821 46.3959 185.419 48.8783C186.888 50.2844 188.306 51.775 189.658 53.2826C191.11 54.908 192.512 56.618 193.854 58.3146C195.04 59.8497 195.894 61.5984 196.472 63.4457C197.172 65.6065 197.536 67.8527 197.674 70.113C197.85 72.9232 197.74 75.7342 197.448 78.5053C197.289 80.095 197.069 81.6714 196.813 83.2716C196.479 85.0778 196.129 86.8165 195.755 88.5182Z" fill="black"/>
<path fill-rule="evenodd" clip-rule="evenodd" d="M93.157 232.667C93.2705 232.15 93.1053 231.891 92.5971 231.747C92.0822 231.634 91.8234 231.8 91.6796 232.31C91.028 235.13 90.3461 237.942 89.6945 240.762C89.5809 241.278 89.7462 241.538 90.2611 241.651C90.7759 241.764 91.0347 241.598 91.1483 241.081C91.8604 238.275 92.512 235.456 93.157 232.667Z" fill="white"/>
<path fill-rule="evenodd" clip-rule="evenodd" d="M82.5145 244.121C81.7346 242.325 81.6139 240.419 82.0317 238.663C82.6365 236.056 84.4395 233.777 87.0717 232.635C87.176 232.594 87.2062 232.601 87.2129 232.571C87.5626 232.425 88.0035 232.585 88.142 232.966C88.2872 233.317 88.1331 233.729 87.7465 233.899C87.6423 233.939 87.612 233.933 87.612 233.933C85.4033 234.881 83.8992 236.812 83.3879 238.993C83.0303 240.475 83.1269 242.058 83.7786 243.571C84.7206 245.785 86.6438 247.291 88.8178 247.8C90.2952 248.157 91.8728 248.058 93.3822 247.402C95.5909 246.454 97.095 244.523 97.6063 242.342C97.9639 240.86 97.837 239.271 97.2157 237.764C96.9016 237.026 96.5003 236.396 95.9881 235.838C95.732 235.559 95.7717 235.089 96.0505 234.832C96.3293 234.575 96.797 234.614 97.0531 234.893C97.6361 235.563 98.1318 236.341 98.5167 237.19C99.2966 238.986 99.4173 240.892 98.9995 242.648C98.3947 245.255 96.5917 247.534 93.9594 248.676C92.1743 249.43 90.2671 249.584 88.5172 249.168C85.9192 248.565 83.649 246.76 82.5145 244.121Z" fill="white"/>
<path d="M68.4678 73.7395C73.3072 52.965 110.882 62.1093 131.389 67.0706C151.896 72.0319 189.495 81.075 184.303 101.764C175.142 138.086 165.81 172.252 159.975 193.722C152.754 220.263 150.91 227.444 141.419 228.868C135.608 229.737 126.904 228.461 116.313 226.273C101.459 223.188 86.6708 219.61 72.0493 215.564C61.6045 212.663 53.3043 209.825 48.5337 206.396C40.7429 200.791 42.3855 193.561 48.0951 166.654C52.7012 144.86 60.0124 110.232 68.4678 73.7395Z" fill="#CBCBCB" stroke="#231F20" stroke-width="0.1823" stroke-miterlimit="22.926" stroke-linejoin="bevel"/>
<path fill-rule="evenodd" clip-rule="evenodd" d="M167.252 100.262L163.196 99.2804L164.902 92.2266L167.252 100.262Z" fill="#231F20"/>
<path fill-rule="evenodd" clip-rule="evenodd" d="M166.062 92.5068L175.937 94.8961L174.23 101.95L168.411 100.542L166.062 92.5068Z" fill="#231F20"/>
<path fill-rule="evenodd" clip-rule="evenodd" d="M164.115 90.9655L177.19 94.1288L174.988 103.231L161.913 100.067L162.402 98.0447L160.437 97.5693L159.477 101.539L176.482 105.653L177.222 102.594L178.658 102.941C179.212 103.075 179.801 102.736 179.935 102.18L181.116 97.3C181.251 96.7438 180.907 96.179 180.328 96.0388L178.892 95.6914L179.632 92.6322L162.627 88.5181L161.667 92.4874L163.632 92.9629L164.115 90.9655Z" fill="#231F20"/>
<path d="M64.8767 179.519L66.2005 175.37L67.5792 173.75C68.0463 174.024 68.263 174.451 68.204 175.026L66.5477 180.218L65.6397 180.775L64.8767 179.519Z" fill="#231F20"/>
<path d="M64.7517 179.596L65.5086 180.877L64.2059 181.632L59.3941 180.468L58.757 179.243L60.0407 178.456L64.7517 179.596Z" fill="#231F20"/>
<path d="M65.5897 180.977L66.0543 181.812L64.2314 187.472C63.9205 187.986 63.4822 188.255 62.9226 188.253L62.7141 186.249L64.1365 181.803L65.5897 180.977Z" fill="#231F20"/>
<path d="M66.1537 175.225L61.4175 174.079L59.8886 173.014C60.1995 172.5 60.6317 172.257 61.2288 172.214L67.4261 173.713L66.1537 175.225Z" fill="#231F20"/>
<path d="M62.7915 188.248L56.5437 186.736C56.0514 186.457 55.8286 186.055 55.8876 185.48L57.8414 185.231L62.5776 186.376L62.7915 188.248Z" fill="#231F20"/>
<path d="M74.3257 181.912L75.0826 183.193L73.7547 183.942L68.9429 182.778L68.3059 181.553L69.5895 180.766L74.3257 181.912Z" fill="#231F20"/>
<path d="M75.045 189.954L76.806 184.439L77.7583 183.92L78.4403 185.29L76.9927 189.73L75.045 189.954Z" fill="#231F20"/>
<path d="M83.9978 184.145L85.3216 179.996L86.7002 178.376C87.1674 178.65 87.3589 179.071 87.3251 179.651L85.6688 184.844L84.7608 185.401L83.9978 184.145Z" fill="#231F20"/>
<path d="M83.8716 184.222L84.6285 185.502L83.3258 186.258L78.4888 185.087L77.8518 183.863L79.1354 183.076L83.8716 184.222Z" fill="#231F20"/>
<path d="M85.2757 179.852L80.5395 178.706L79.0107 177.64C79.3216 177.126 79.7538 176.883 80.3509 176.84L86.5482 178.34L85.2757 179.852Z" fill="#231F20"/>
<path d="M81.8862 192.868L75.6385 191.356C75.1461 191.076 74.8981 190.669 74.9823 190.1L76.9361 189.85L81.6723 190.996L81.8862 192.868Z" fill="#231F20"/>
<path d="M90.0562 181.142L88.7508 185.215L87.348 186.053L86.8765 185.136L88.496 180.095L90.0562 181.142Z" fill="#231F20"/>
<path d="M93.5447 186.456L94.8685 182.306L96.2471 180.686C96.7143 180.96 96.931 181.387 96.872 181.962L95.2157 187.154L94.3077 187.711L93.5447 186.456Z" fill="#231F20"/>
<path d="M93.4204 186.532L94.1774 187.812L92.8746 188.568L88.0376 187.397L87.4006 186.173L88.6843 185.386L93.4204 186.532Z" fill="#231F20"/>
<path d="M94.2342 187.907L94.6989 188.742L92.876 194.403C92.5651 194.916 92.1267 195.185 91.5671 195.183L91.3586 193.179L92.781 188.733L94.2342 187.907Z" fill="#231F20"/>
<path d="M94.8246 182.162L90.0884 181.016L88.5595 179.95C88.8704 179.436 89.3026 179.193 89.8997 179.15L96.097 180.65L94.8246 182.162Z" fill="#231F20"/>
<path d="M91.4594 195.184L85.2117 193.672C84.7193 193.392 84.4966 192.991 84.5556 192.416L86.5094 192.166L91.2456 193.312L91.4594 195.184Z" fill="#231F20"/>
<path d="M128.276 190.388L126.97 194.462L125.593 195.306L125.096 194.383L126.716 189.342L128.276 190.388Z" fill="#231F20"/>
<path d="M122.811 201.511L124.597 196.002L125.524 195.477L126.206 196.846L124.784 201.293L122.811 201.511Z" fill="#231F20"/>
<path d="M131.762 195.701L133.086 191.552L134.465 189.932C134.932 190.206 135.124 190.627 135.09 191.207L133.433 196.4L132.525 196.956L131.762 195.701Z" fill="#231F20"/>
<path d="M131.638 195.779L132.395 197.059L131.092 197.814L126.255 196.644L125.618 195.419L126.902 194.633L131.638 195.779Z" fill="#231F20"/>
<path d="M132.451 197.152L132.916 197.987L131.093 203.648C130.782 204.162 130.344 204.43 129.784 204.429L129.575 202.425L130.998 197.978L132.451 197.152Z" fill="#231F20"/>
<path d="M133.04 191.407L128.304 190.261L126.775 189.196C127.086 188.682 127.518 188.439 128.116 188.396L134.313 189.895L133.04 191.407Z" fill="#231F20"/>
<path d="M129.678 204.43L123.43 202.919C122.938 202.639 122.715 202.237 122.774 201.663L124.728 201.413L129.464 202.559L129.678 204.43Z" fill="#231F20"/>
<path fill-rule="evenodd" clip-rule="evenodd" d="M134.092 200.841C134.697 200.988 135.059 201.584 134.912 202.191C134.765 202.798 134.171 203.162 133.566 203.016C132.961 202.87 132.599 202.273 132.746 201.667C132.912 201.091 133.513 200.701 134.092 200.841ZM136.672 192.821C137.277 192.968 137.639 193.564 137.493 194.171C137.346 194.777 136.751 195.142 136.146 194.996C135.542 194.849 135.179 194.253 135.326 193.647C135.473 193.04 136.068 192.675 136.672 192.821Z" fill="#231F20"/>
<path d="M144.132 198.694L145.455 194.545L146.834 192.925C147.301 193.198 147.518 193.625 147.459 194.2L145.803 199.392L144.895 199.949L144.132 198.694Z" fill="#231F20"/>
<path d="M143.981 198.765L144.763 200.051L143.435 200.8L138.624 199.636L137.987 198.412L139.27 197.625L143.981 198.765Z" fill="#231F20"/>
<path d="M144.821 200.145L145.286 200.98L143.463 206.641C143.152 207.155 142.714 207.424 142.154 207.422L141.946 205.418L143.368 200.971L144.821 200.145Z" fill="#231F20"/>
<path d="M145.386 194.394L140.65 193.248L139.121 192.182C139.432 191.669 139.864 191.426 140.461 191.383L146.659 192.882L145.386 194.394Z" fill="#231F20"/>
<path d="M142.022 207.416L135.774 205.905C135.282 205.625 135.059 205.223 135.118 204.649L137.072 204.399L141.808 205.545L142.022 207.416Z" fill="#231F20"/>
<path d="M150.191 195.691L148.86 199.758L147.483 200.602L147.011 199.685L148.631 194.644L150.191 195.691Z" fill="#231F20"/>
<path d="M153.679 201.004L155.003 196.855L156.382 195.235C156.849 195.508 157.041 195.929 157.007 196.51L155.35 201.703L154.442 202.259L153.679 201.004Z" fill="#231F20"/>
<path d="M154.368 202.455L154.833 203.29L153.01 208.951C152.699 209.464 152.261 209.733 151.701 209.731L151.492 207.727L152.915 203.281L154.368 202.455Z" fill="#231F20"/>
<path d="M154.933 196.704L150.197 195.558L148.668 194.493C148.979 193.979 149.411 193.736 150.008 193.693L156.205 195.192L154.933 196.704Z" fill="#231F20"/>
<path d="M151.871 112.919L146.907 128.364L141.616 131.607L139.788 128.14L145.964 108.894L151.871 112.919Z" fill="#231F20"/>
<path d="M164.742 133.455L167.648 138.307L162.65 141.219L144.235 136.763L141.801 132.053L146.679 129.085L164.742 133.455Z" fill="#231F20"/>
<path d="M167.891 138.74L169.673 141.955L162.733 163.586C161.539 165.545 159.886 166.536 157.767 166.586L156.948 158.948L162.398 141.934L167.891 138.74Z" fill="#231F20"/>
<path d="M170.081 116.79L152.018 112.419L146.187 108.306C147.368 106.397 149.078 105.392 151.291 105.285L174.997 111.021L170.081 116.79Z" fill="#231F20"/>
<path d="M157.238 166.458L133.406 160.692C131.475 159.636 130.64 158.016 130.89 155.882L138.385 154.992L156.499 159.374L157.238 166.458Z" fill="#231F20"/>
<path d="M131.98 171.213L135.608 172.091L135.842 171.345L133.071 170.674L135.004 164.665L134.148 164.458L131.98 171.213ZM133.537 164.337L132.731 164.142L131.998 166.4L131.973 166.394C131.926 165.928 131.546 165.515 131.067 165.399C129.631 165.052 128.931 166.622 128.598 167.665C128.081 169.253 128.196 170.432 129.405 170.724C129.959 170.858 130.53 170.595 130.748 170.246L130.773 170.252L130.569 170.872L131.325 171.055L133.537 164.337ZM129.455 167.873C129.83 166.652 130.297 165.935 131.028 166.112C131.884 166.319 131.74 167.355 131.42 168.348C131.063 169.493 130.628 170.297 129.747 170.084C128.991 169.901 129.055 169.087 129.455 167.873ZM125.122 169.688L125.752 169.84L130.248 163.381L129.619 163.229L125.122 169.688ZM126.823 164.533L126.067 164.35L125.858 164.995L125.833 164.989C125.855 164.566 125.544 164.089 124.964 163.949C123.654 163.632 122.883 164.837 122.42 166.197C122.205 166.868 121.696 168.752 123.182 169.111C123.686 169.233 124.251 169.102 124.556 168.721L124.581 168.727L124.366 169.398C124.255 169.746 124.034 170.549 123.001 170.299C122.573 170.195 122.263 169.933 122.379 169.452L121.573 169.257C121.312 170.559 122.546 170.858 122.848 170.931C123.881 171.181 124.772 170.807 125.245 169.29L126.823 164.533ZM124.849 164.644C125.706 164.851 125.562 165.887 125.242 166.88C124.909 167.924 124.481 168.703 123.599 168.49C122.793 168.295 122.993 167.246 123.277 166.405C123.677 165.19 124.119 164.467 124.849 164.644ZM115.429 167.209L116.235 167.404L117.374 163.906C117.621 163.109 118.28 163.028 118.658 163.119C119.313 163.278 119.135 163.904 119.012 164.302L117.872 167.8L118.679 167.995L119.818 164.497C120.064 163.7 120.724 163.619 121.102 163.711C121.757 163.869 121.579 164.495 121.456 164.893L120.316 168.391L121.122 168.586L122.28 165.013C122.477 164.418 122.804 163.4 121.443 163.071C120.914 162.943 120.344 163.206 119.963 163.569C119.977 162.957 119.705 162.65 119.1 162.504C118.597 162.382 117.975 162.526 117.638 162.926L117.663 162.932L117.861 162.338L117.105 162.155L115.429 167.209Z" fill="#231F20"/>
<path d="M103.415 198.13L104.524 198.398L106.095 193.559C106.439 192.465 107.35 192.337 107.879 192.465C108.786 192.685 108.547 193.564 108.387 194.114L106.816 198.952L107.925 199.221L109.496 194.382C109.84 193.288 110.751 193.16 111.28 193.288C112.187 193.508 111.948 194.386 111.788 194.937L110.217 199.775L111.326 200.043L112.927 195.078C113.179 194.256 113.623 192.865 111.758 192.414C111.028 192.237 110.225 192.578 109.72 193.125C109.739 192.273 109.365 191.835 108.534 191.634C107.854 191.469 106.981 191.659 106.494 192.237L106.469 192.231L106.721 191.409L105.663 191.153L103.415 198.13ZM97.0775 199.085L98.1859 199.353L99.1773 196.248L99.2025 196.254C99.2572 196.91 99.7387 197.454 100.369 197.607C102.208 198.052 103.413 195.935 103.905 194.341C104.57 192.254 104.402 190.634 102.739 190.232C101.984 190.049 101.175 190.415 100.87 190.904L100.845 190.897L101.11 190.025L100.051 189.769L97.0775 199.085ZM99.9699 193.523C100.487 191.935 101.052 190.814 102.286 191.112C103.319 191.362 103.233 192.492 102.753 194.035C102.18 195.85 101.564 196.852 100.532 196.602C99.3414 196.341 99.5328 194.889 99.9699 193.523Z" fill="#231F20"/>
<path fill-rule="evenodd" clip-rule="evenodd" d="M93.1657 165.649L97.1965 166.624L97.5696 165.082L93.5388 164.107L93.1657 165.649ZM95.4723 173.861L91.4415 172.886L91.1234 174.201L95.1542 175.176L95.4723 173.861ZM98.5175 163.92L98.4671 163.907L99.1644 161.025C99.3051 160.444 98.8664 159.722 98.2869 159.582L97.8083 159.466L98.2732 157.544C98.4138 156.963 98.0269 156.468 97.5483 156.352C96.9688 156.212 96.3984 156.475 96.2578 157.057L95.7929 158.978L95.4402 158.893C94.76 158.728 94.1658 159.2 94.0251 159.782L93.3278 162.664L93.3026 162.658C92.8996 162.56 92.4987 162.785 92.4008 163.189L89.6605 174.516C89.5626 174.92 89.8167 175.303 90.2198 175.4L95.4598 176.668C95.8629 176.766 96.2638 176.542 96.3617 176.137L99.102 164.81C99.1495 164.394 98.8954 164.011 98.5175 163.92Z" fill="#231F20"/>
<path d="M105.44 101.686L100.502 117.137L95.2104 120.38L93.3572 116.908L99.5336 97.6609L105.44 101.686Z" fill="#231F20"/>
<path d="M118.312 122.222L121.219 127.074L116.221 129.986L97.8051 125.53L95.3712 120.82L100.275 117.858L118.312 122.222Z" fill="#231F20"/>
<path d="M121.461 127.507L123.243 130.722L116.303 152.353C115.109 154.312 113.456 155.304 111.337 155.353L110.518 147.715L115.968 130.701L121.461 127.507Z" fill="#231F20"/>
<path d="M123.651 105.556L105.588 101.186L99.7569 97.0722C100.939 95.1636 102.648 94.1588 104.861 94.0518L128.567 99.7872L123.651 105.556Z" fill="#231F20"/>
<path d="M110.808 155.225L86.9756 149.459C85.0444 148.403 84.2097 146.783 84.4594 144.649L91.9547 143.759L110.068 148.141L110.808 155.225Z" fill="#231F20"/>
<path d="M128.23 152.535L121.73 150.963L120.152 157.486L126.652 159.058L128.23 152.535Z" fill="#231F20"/>
</g>
<defs>
<clipPath id="clip0">
<rect width="158.835" height="285.061" fill="white" transform="translate(62.2051) rotate(12.3992)"/>
</clipPath>
</defs>
</svg>
