<svg width="70" height="65" viewBox="0 0 70 65" xmlns="http://www.w3.org/2000/svg">
<path d="M67.083 16.0511H39.3747V1.33759C39.3747 0.597958 38.7227 0 37.9163 0H2.91634C2.10994 0 1.45801 0.597958 1.45801 1.33759V62.8669C1.45801 63.6066 2.10994 64.2045 2.91634 64.2045H37.9163H67.083C67.8894 64.2045 68.5413 63.6066 68.5413 62.8669V17.3887C68.5413 16.6491 67.8894 16.0511 67.083 16.0511ZM13.1247 61.5294V50.8286H27.708V61.5294H13.1247ZM29.1663 48.1534H11.6663C10.8599 48.1534 10.208 48.7514 10.208 49.491V61.5294H4.37467V2.67519H20.4163H36.458V17.3887V61.5294H30.6247V49.491C30.6247 48.7514 29.9727 48.1534 29.1663 48.1534ZM65.6247 61.5294H39.3747V18.7263H65.6247V61.5294Z" />
<path d="M17.4994 26.752H8.74935C7.94295 26.752 7.29102 27.3499 7.29102 28.0895V41.4655C7.29102 42.2051 7.94295 42.8031 8.74935 42.8031H17.4994C18.3058 42.8031 18.9577 42.2051 18.9577 41.4655V28.0895C18.9577 27.3499 18.3058 26.752 17.4994 26.752ZM16.041 40.1279H10.2077V29.4271H16.041V40.1279Z" />
<path d="M33.5417 41.4655V28.0895C33.5417 27.3499 32.8897 26.752 32.0833 26.752H23.3333C22.5269 26.752 21.875 27.3499 21.875 28.0895V41.4655C21.875 42.2051 22.5269 42.8031 23.3333 42.8031H32.0833C32.8897 42.8031 33.5417 42.2051 33.5417 41.4655ZM30.625 40.1279H24.7917V29.4271H30.625V40.1279Z" />
<path d="M43.7493 37.4526H61.2493C62.0557 37.4526 62.7077 36.8546 62.7077 36.115V25.4143C62.7077 24.6746 62.0557 24.0767 61.2493 24.0767H43.7493C42.9429 24.0767 42.291 24.6746 42.291 25.4143V36.115C42.291 36.8546 42.9429 37.4526 43.7493 37.4526ZM45.2077 26.7518H59.791V34.7774H45.2077V26.7518Z" />
<path d="M11.4915 21.5085H28.9915C29.7979 21.5085 30.4499 20.9106 30.4499 20.1709V9.47016C30.4499 8.73053 29.7979 8.13257 28.9915 8.13257H11.4915C10.6851 8.13257 10.0332 8.73053 10.0332 9.47016V20.1709C10.0332 20.9106 10.6851 21.5085 11.4915 21.5085ZM12.9499 10.8078H27.5332V18.8333H12.9499V10.8078Z" />
<path d="M43.7493 56.1789H61.2493C62.0557 56.1789 62.7077 55.581 62.7077 54.8413V44.1406C62.7077 43.4009 62.0557 42.803 61.2493 42.803H43.7493C42.9429 42.803 42.291 43.4009 42.291 44.1406V54.8413C42.291 55.581 42.9429 56.1789 43.7493 56.1789ZM45.2077 45.4782H59.791V53.5037H45.2077V45.4782Z" />
</svg>
