<svg width="82" height="44" viewBox="0 0 82 44" fill="none" xmlns="http://www.w3.org/2000/svg">
<g clip-path="url(#clip0)">
<path fill-rule="evenodd" clip-rule="evenodd" d="M24.9019 19.6486L74.3906 6.38816C74.923 6.24549 75.4841 6.56454 75.6249 7.09009L78.2613 16.9294C78.4022 17.4549 78.0758 18.0118 77.5433 18.1544L28.0547 31.4149C27.5223 31.5576 26.9612 31.2385 26.8204 30.713L24.1839 20.8736C24.0431 20.3481 24.3695 19.7913 24.9019 19.6486Z" fill="#EFEFEF"/>
<path d="M24.9019 19.6486L74.3906 6.38816C74.923 6.24548 75.4841 6.56454 75.6249 7.09009L78.2613 16.9294C78.4022 17.4549 78.0758 18.0118 77.5433 18.1544L28.0547 31.4149C27.5223 31.5576 26.9612 31.2385 26.8204 30.713L24.1839 20.8736C24.0431 20.3481 24.3695 19.7913 24.9019 19.6486Z" fill="#FF9A7D" stroke="#231F20" stroke-miterlimit="22.926"/>
<path d="M76.3748 9.76808L24.9043 23.5596L26.0934 27.9975L77.564 14.206L76.3748 9.76808Z" fill="#F57E23" stroke="#231F20" stroke-width="0.55" stroke-miterlimit="22.926"/>
<path fill-rule="evenodd" clip-rule="evenodd" d="M21.8885 25.8072L25.2607 24.9036L25.7223 26.6262L18.2975 28.6157L21.8885 25.8072Z" fill="white"/>
<path d="M21.8885 25.8072L25.2607 24.9036L25.7223 26.6262L18.2975 28.6157L21.8885 25.8072Z" stroke="#231F20" stroke-width="0.216" stroke-miterlimit="22.926"/>
<path fill-rule="evenodd" clip-rule="evenodd" d="M12.1337 18.5011C17.8132 16.9793 23.6108 20.2762 25.1129 25.882C26.6149 31.4878 23.2425 37.2418 17.563 38.7636C11.8835 40.2855 6.08587 36.9885 4.58381 31.3827C3.08174 25.777 6.45416 20.0229 12.1337 18.5011Z" fill="#FF9A7D"/>
<path d="M12.1337 18.5011C17.8132 16.9793 23.6108 20.2762 25.1129 25.882C26.6149 31.4878 23.2425 37.2418 17.563 38.7636C11.8835 40.2855 6.08587 36.9885 4.58381 31.3827C3.08174 25.777 6.45416 20.0229 12.1337 18.5011Z" stroke="#231F20" stroke-miterlimit="22.926"/>
<path d="M12.9221 21.4502C16.9155 20.3802 21.0299 22.7199 22.0939 26.6907C23.1579 30.6614 20.7567 34.7158 16.7633 35.7858C12.7403 36.8637 8.65546 34.5161 7.59932 30.5745C6.54319 26.6329 8.89911 22.5281 12.9221 21.4502Z" fill="#F57E23" stroke="#231F20" stroke-width="0.55" stroke-miterlimit="22.926"/>
</g>
<defs>
<clipPath id="clip0">
<rect width="78" height="24" fill="white" transform="translate(0 20.188) rotate(-15)"/>
</clipPath>
</defs>
</svg>
