<svg width="70" height="65" viewBox="0 0 70 65" xmlns="http://www.w3.org/2000/svg">
<path d="M60.6275 0.403858C60.0451 -0.134619 59.1039 -0.134619 58.5217 0.403858L53.6171 4.93807L50.2021 1.78081C49.6196 1.24233 48.6784 1.24233 48.0962 1.78081L22.7772 25.1889C22.1948 25.7274 22.1948 26.5976 22.7772 27.1359L31.7133 35.3975C32.0037 35.666 32.3849 35.8009 32.7664 35.8009C33.1476 35.8009 33.529 35.666 33.8194 35.3975L51.6952 18.8709C58.693 25.6926 58.5807 36.5038 51.3476 43.1926C47.785 46.4891 43.049 48.3011 38.0104 48.3011C34.2707 48.3011 30.7018 47.3014 27.6533 45.4398H37.2342C38.0578 45.4398 38.7236 44.8242 38.7236 44.0628C38.7236 43.3014 38.0578 42.6859 37.2342 42.6859H10.4259C9.6023 42.6859 8.93652 43.3014 8.93652 44.0628C8.93652 44.8242 9.6023 45.4398 10.4259 45.4398H22.9024C25.5472 47.7888 28.723 49.4517 32.1772 50.3307L25.4758 62.7218C25.2435 63.1487 25.2673 63.6567 25.5398 64.0629C25.8138 64.4691 26.2905 64.717 26.8087 64.717H52.1277C52.646 64.717 53.1227 64.4693 53.3951 64.0629C53.6677 63.6567 53.6899 63.1487 53.4607 62.7218L46.333 49.5425C48.9644 48.5403 51.3807 47.0563 53.4532 45.1383C61.8482 37.3781 61.96 24.8203 53.8008 16.924L59.138 11.9896C59.7204 11.4512 59.7204 10.581 59.138 10.0427L55.723 6.88544L60.6273 2.35122C61.2097 1.81253 61.2097 0.942335 60.6275 0.403858ZM49.7179 61.9631H29.2169L35.2047 50.8901C36.1277 50.9989 37.0643 51.055 38.0102 51.055C39.8791 51.055 41.7118 50.8383 43.476 50.4201L49.7179 61.9631ZM32.7662 32.477L25.9359 26.1623L49.149 4.7011L55.9793 11.0159L32.7662 32.477Z"/>
</svg>
