<svg width="67" height="67" viewBox="0 0 67 67" xmlns="http://www.w3.org/2000/svg">
<path d="M63.65 0H3.35C1.49982 0 0 1.49982 0 3.35V49.1333C0 50.9835 1.49982 52.4833 3.35 52.4833H23.0179L20.4127 60.3H8.93333C8.31665 60.3 7.81667 60.8 7.81667 61.4167V65.8833C7.81667 66.5 8.31665 67 8.93333 67H60.3C60.9167 67 61.4167 66.5 61.4167 65.8833V61.4167C61.4167 60.8 60.9167 60.3 60.3 60.3H46.5873L43.9822 52.4833H63.65C65.5002 52.4833 67 50.9835 67 49.1333V3.35C67 1.49982 65.5002 0 63.65 0ZM59.1833 62.5333V64.7667H10.05V62.5333H59.1833ZM44.2334 60.3H22.7666L25.3718 52.4833H41.6282L44.2334 60.3ZM64.7667 49.1333C64.7667 49.75 64.2667 50.25 63.65 50.25H3.35C2.73332 50.25 2.23333 49.75 2.23333 49.1333V43.55H64.7667V49.1333ZM64.7667 41.3167H2.23333V6.7H64.7667V41.3167ZM64.7667 4.46667H2.23333V3.35C2.23333 2.73332 2.73332 2.23333 3.35 2.23333H63.65C64.2667 2.23333 64.7667 2.73332 64.7667 3.35V4.46667Z"/>
<path d="M22.3333 24.5669H17.8667C17.25 24.5669 16.75 25.0669 16.75 25.6836V37.9669C16.75 38.5836 17.25 39.0836 17.8667 39.0836H22.3333C22.95 39.0836 23.45 38.5836 23.45 37.9669V25.6836C23.45 25.0669 22.95 24.5669 22.3333 24.5669ZM21.2167 36.8502H18.9833V26.8002H21.2167V36.8502Z"/>
<path d="M31.2667 18.9834H26.8C26.1833 18.9834 25.6833 19.4834 25.6833 20.1001V37.9667C25.6833 38.5834 26.1833 39.0834 26.8 39.0834H31.2667C31.8834 39.0834 32.3834 38.5834 32.3834 37.9667V20.1001C32.3834 19.4834 31.8834 18.9834 31.2667 18.9834ZM30.15 36.8501H27.9167V21.2167H30.15V36.8501Z"/>
<path d="M40.2 14.5166H35.7334C35.1167 14.5166 34.6167 15.0166 34.6167 15.6333V37.9666C34.6167 38.5833 35.1167 39.0833 35.7334 39.0833H40.2C40.8167 39.0833 41.3167 38.5833 41.3167 37.9666V15.6333C41.3167 15.0166 40.8167 14.5166 40.2 14.5166ZM39.0834 36.8499H36.85V16.7499H39.0834V36.8499Z"/>
<path d="M49.1334 8.93311H44.6667C44.05 8.93311 43.55 9.43309 43.55 10.0498V37.9664C43.55 38.5831 44.05 39.0831 44.6667 39.0831H49.1334C49.7501 39.0831 50.25 38.5831 50.25 37.9664V10.0498C50.25 9.43309 49.7501 8.93311 49.1334 8.93311ZM48.0167 36.8498H45.7834V11.1664H48.0167V36.8498Z"/>
<path d="M15.6332 8.93311H4.46655V11.1664H15.6332V8.93311Z"/>
<path d="M15.6332 13.3999H4.46655V15.6332H15.6332V13.3999Z"/>
<path d="M10.0499 17.8667H4.46655V20.1H10.0499V17.8667Z"/>
<path d="M62.5333 27.9165H55.8333V30.1498H62.5333V27.9165Z"/>
<path d="M62.5333 32.3833H55.8333V34.6166H62.5333V32.3833Z"/>
<path d="M62.5333 36.8501H55.8333V39.0834H62.5333V36.8501Z"/>
<path d="M34.6166 45.7832H32.3833V48.0165H34.6166V45.7832Z"/>
</svg>
