<svg width="278" height="185" viewBox="0 0 278 185" fill="none" xmlns="http://www.w3.org/2000/svg">
<path d="M157.621 73.3376C158.749 73.6398 159.072 74.6886 159.072 74.6886L159.111 75.0564C159.109 76.2931 158.727 76.7957 158.72 76.8213L158.688 76.8401L158.63 76.852L158.514 76.8759C157.99 76.9831 157.442 77.0835 156.867 77.1771C152.31 77.9903 139.914 79.8652 126.162 79.4245L94.7748 83.1937L94.456 82.6409L94.4373 82.6083L90.6903 83.0615L90.9874 85.6429L90.1036 85.7635L89.6905 85.4604L87.9635 84.8327L88.2318 87.214L86.8131 87.3837L86.5329 84.9442L85.411 85.4409C85.2709 84.2212 85.2271 83.7696 85.1358 83.0853C85.0414 82.2077 85.4957 81.2297 85.9407 80.7991C86.68 80.0899 88.0969 80.0297 88.0969 80.0297L91.8695 79.5834L123.283 75.8211C142.983 75.7937 156.618 73.2888 156.618 73.2888C156.993 73.2241 157.314 73.2552 157.621 73.3376ZM158.309 70.7725C157.668 70.6008 156.993 70.5574 156.284 70.6423L156.2 70.6473L156.116 70.6524C155.974 70.6694 142.469 73.0991 123.257 73.1475L123.09 73.1576L122.948 73.1746L91.5349 76.9369L87.8461 77.3781C87.1504 77.4117 85.3573 77.646 84.0942 78.8747C83.1718 79.7547 82.2531 81.543 82.4726 83.3889L82.7409 85.7702L83.175 89.3781L84.3037 88.8558L84.4845 90.3338L87.1545 90.0045L88.5733 89.8348L91.1852 89.5175L91.0639 88.3302L91.3476 88.2963L93.9852 87.9858L93.7163 86.0167L95.0769 85.8589L126.271 82.093C140.165 82.5168 152.593 80.6231 157.318 79.7997C157.776 79.73 158.267 79.6415 158.757 79.5531L158.834 79.5737L159.216 79.4834L159.274 79.4714L159.481 79.4169L160.347 79.1543L160.875 78.4159C161.217 77.9578 161.776 76.8978 161.762 75.1069L161.752 74.9392L161.742 74.7716L161.703 74.4038L161.681 74.178L161.601 73.9641C161.235 72.7664 160.179 71.2738 158.309 70.7725Z" fill="#231F20"/>
<path d="M260.379 63.6734C263.454 64.4974 266.001 71.3932 267.013 80.0221C268.134 89.3677 266.916 96.987 264.326 97.5302L260.757 98.1408L260.74 97.9988C260.127 98.8518 259.403 99.4002 258.603 99.5157C258.603 99.5157 257.615 99.7184 256.564 99.4368C256.257 99.3544 255.956 99.2464 255.676 99.0614C255 98.7152 254.687 97.834 254.687 97.834C254.407 97.2367 254.039 96.973 253.68 96.8768C253.142 96.7327 252.661 96.9888 252.661 96.9888L239.246 99.8001L238.193 99.628L237.044 100.227L211.534 105.022C168.863 105.492 126.259 115.246 126.259 115.246L97.451 118.717C96.9767 119.359 96.4361 119.737 95.8686 119.805L92.7473 120.178C92.5216 120.2 92.3029 120.197 92.0722 120.135C90.5347 119.723 88.9401 117.371 87.6035 113.851L74.9764 115.362C74.7508 115.384 74.532 115.38 74.3014 115.318C73.3789 115.071 72.4556 114.109 71.6442 112.627L45.5644 115.756C45.4807 115.761 45.3969 115.766 45.2944 115.739C44.1412 115.43 42.876 112.259 42.2513 108.132L45.1982 107.795L44.9042 105.407L41.9829 105.751C41.7189 101.611 42.0473 97.8229 43.3824 97.6583L69.5785 94.5051C70.1502 92.6788 70.9808 91.5267 72.0577 91.4028L84.6848 89.8925C85.2088 85.5791 86.4418 82.7202 88.1768 82.4978L91.2981 82.1245C91.5493 82.1093 91.7937 82.1198 92.0244 82.1816C92.3831 82.2778 92.7657 82.4902 93.1207 82.8053L122.154 79.3127C122.154 79.3127 162.049 79.3627 207.546 69.0642L233.27 67.5715L234.506 67.8755L235.589 67.4232L248.396 66.6759C248.396 66.6759 250.49 66.5496 250.7 65.1489C250.7 65.1489 250.939 64.3606 251.622 63.9661C252.867 63.0077 254.463 62.9955 254.463 62.9955C254.747 62.9616 255.043 62.9858 255.325 63.0614C255.812 63.1918 256.29 63.4574 256.752 63.8838L259.511 63.6332C259.853 63.5874 260.123 63.6047 260.379 63.6734ZM261.067 61.1083C260.528 60.9641 259.937 60.9156 259.377 60.9578L257.546 61.1272C257.075 60.8359 256.557 60.6148 256.07 60.4843C255.506 60.3332 254.915 60.2848 254.355 60.327C253.717 60.3486 251.854 60.5367 250.186 61.7394C249.1 62.4106 248.58 63.4261 248.32 63.9886C248.287 64.0074 248.262 64.0005 248.262 64.0005L235.454 64.7478L235.01 64.7662L234.608 64.9335L234.329 65.0512L233.945 64.9482L233.561 64.8452L233.167 64.8773L207.469 66.3769L207.244 66.3989L207.044 66.4278C162.361 76.5594 122.632 76.6088 122.245 76.6153L122.078 76.6254L121.91 76.6355L93.8442 80.0024C93.4805 79.8225 93.1355 79.6751 92.7511 79.5721C92.1873 79.421 91.596 79.3725 91.0285 79.4404L87.9072 79.8138C85.1534 80.1481 83.3142 82.707 82.4033 87.4392L71.7881 88.7188C70.5368 88.8784 68.9156 89.5987 67.7157 92.0265L43.0803 94.993C40.1009 95.3494 38.903 98.7949 39.3373 105.785L39.1954 105.802L39.4274 107.293L39.5193 108.693L39.6356 108.669C40.269 112.66 41.6413 117.482 44.5883 118.271C44.9984 118.381 45.429 118.414 45.8546 118.363L70.29 115.425C71.2658 116.704 72.3653 117.521 73.5953 117.851C74.1335 117.995 74.6991 118.037 75.2666 117.969L85.8818 116.689C87.439 120.103 89.2648 122.104 91.3405 122.661C91.9043 122.812 92.4699 122.853 93.0375 122.785L96.1588 122.412C96.8681 122.327 97.8 122.027 98.7344 121.205L126.575 117.86L126.717 117.843L126.859 117.826C127.272 117.717 169.7 108.109 211.573 107.644L211.792 107.647L212.024 107.6L237.527 102.831L237.934 102.748L238.292 102.541L238.642 102.36L238.829 102.383L239.304 102.455L239.769 102.36L252.654 99.6811C252.998 100.241 253.534 100.907 254.35 101.345C254.821 101.637 255.346 101.832 255.884 101.976C257.345 102.368 258.661 102.171 259.068 102.087C259.875 101.946 260.937 101.571 261.97 100.583L264.817 100.108C271.598 98.6814 270.047 82.8422 269.689 79.6671C269.054 74.6581 267.012 62.7013 261.067 61.1083Z" fill="#231F20"/>
<path d="M97.3336 118.74L126.251 115.272C126.251 115.272 168.862 105.492 211.526 105.047L237.036 100.253L238.185 99.6535L239.238 99.8256L252.653 97.0143C252.653 97.0143 253.965 96.3211 254.679 97.8595C254.679 97.8595 254.992 98.7407 255.668 99.0869C256.968 99.875 258.621 99.5481 258.621 99.5481C262.17 99.0144 264.026 90.5491 262.803 80.3515C261.581 70.1539 257.919 62.6018 254.546 62.9903C254.546 62.9903 252.95 63.0025 251.704 63.9609C251.022 64.3554 250.757 65.1368 250.757 65.1368C250.547 66.5376 248.453 66.6639 248.453 66.6639L235.646 67.4111L234.563 67.8634L233.326 67.5594L207.603 69.0522C162.099 79.3763 122.211 79.3006 122.211 79.3006L93.1777 82.7932L97.3336 118.74Z" fill="white"/>
<path d="M123.168 79.4196C125.948 79.0921 129.981 86.3862 131.082 96.5238C132.121 106.177 130.225 114.687 127.42 115.008L123.168 79.4196ZM237.96 99.6755C239.782 99.2291 241 91.6099 239.97 82.9485C238.94 74.2872 236.348 67.7642 234.358 67.8085L237.96 99.6755ZM97.3336 118.74L126.251 115.272C126.251 115.272 168.862 105.492 211.526 105.047L237.036 100.253L238.185 99.6535L239.238 99.8256L252.653 97.0143C252.653 97.0143 253.965 96.3211 254.679 97.8595C254.679 97.8595 254.992 98.7407 255.668 99.0869C256.968 99.875 258.621 99.5481 258.621 99.5481C262.17 99.0144 264.026 90.5491 262.803 80.3515C261.581 70.1539 257.919 62.6018 254.546 62.9903C254.546 62.9903 252.95 63.0025 251.704 63.9609C251.022 64.3554 250.757 65.1368 250.757 65.1368C250.547 66.5376 248.453 66.6639 248.453 66.6639L235.646 67.4111L234.563 67.8634L233.326 67.5594L207.603 69.0522C162.099 79.3763 122.211 79.3006 122.211 79.3006L93.1777 82.7932L97.3336 118.74Z" fill="#231F20" stroke="#231F20" stroke-width="0.55" stroke-miterlimit="22.926"/>
<path fill-rule="evenodd" clip-rule="evenodd" d="M91.3636 82.0871C94.4593 81.7069 97.9631 89.8489 99.2077 100.272C100.459 110.67 98.9391 119.418 95.8435 119.798L92.7222 120.171C89.6265 120.552 86.1226 112.41 84.8781 101.986C83.6335 91.5628 85.1466 82.8406 88.2423 82.4604L91.3636 82.0871Z" fill="#5A5A5A"/>
<path d="M91.3636 82.0871C94.4593 81.7069 97.9631 89.8489 99.2077 100.272C100.459 110.67 98.9391 119.418 95.8435 119.798L92.7222 120.171C89.6265 120.552 86.1226 112.41 84.8781 101.986C83.6335 91.5628 85.1466 82.8406 88.2423 82.4604L91.3636 82.0871Z" stroke="#231F20" stroke-width="0.5" stroke-miterlimit="22.926"/>
<path fill-rule="evenodd" clip-rule="evenodd" d="M87.4199 89.5257C89.8574 89.244 92.4666 94.3696 93.2484 100.985C94.0302 107.6 92.718 113.215 90.2805 113.496L74.9834 115.336C72.5458 115.618 69.9366 110.492 69.1548 103.877C68.3731 97.2613 69.6852 91.6469 72.1227 91.3653L87.4199 89.5257Z" fill="white"/>
<path d="M87.4199 89.5257C89.8574 89.244 92.4666 94.3696 93.2484 100.985C94.0302 107.6 92.718 113.215 90.2805 113.496L74.9834 115.336C72.5458 115.618 69.9366 110.492 69.1548 103.877C68.3731 97.2613 69.6852 91.6469 72.1227 91.3653L87.4199 89.5257Z" stroke="#231F20" stroke-width="0.216" stroke-miterlimit="22.926"/>
<path d="M84.4861 114.418L84.1461 114.354C86.3086 113.971 87.1082 108.22 85.9589 101.643C84.8096 95.0671 82.1217 90.0304 79.9916 90.3944L80.3747 90.1947L80.6347 90.0444C82.7973 89.6616 85.5002 94.9497 86.6495 101.526C87.7988 108.102 87.033 114.138 84.8773 114.495L84.4861 114.418Z" fill="white"/>
<path d="M84.4861 114.418L84.1461 114.354C86.3086 113.971 87.1082 108.22 85.9589 101.643C84.8096 95.0671 82.1217 90.0304 79.9916 90.3944L80.3747 90.1947L80.6347 90.0444C82.7973 89.6616 85.5002 94.9497 86.6495 101.526C87.7988 108.102 87.033 114.138 84.8773 114.495L84.4861 114.418Z" stroke="#231F20" stroke-width="0.216" stroke-miterlimit="22.926"/>
<path d="M83.5687 110.048L84.1106 109.973L84.1975 110.162C83.9271 112.811 83.2272 114.603 82.0716 114.816L81.6734 114.764L81.3334 114.7C82.4565 114.506 83.2383 112.819 83.5325 110.286L83.5687 110.048Z" fill="white"/>
<path d="M71.088 94.717C71.2798 94.411 71.4886 94.247 71.7398 94.2319C73.0492 94.0604 74.6039 97.996 75.2137 102.998C75.8235 108 75.2244 112.184 73.9219 112.33C73.6381 112.364 73.3256 112.197 73.003 111.863L71.088 94.717ZM72.0977 91.3585C74.5353 91.0769 77.1445 96.2024 77.9262 102.818C78.708 109.433 77.3959 115.048 74.9584 115.329L72.0977 91.3585ZM83.5694 110.048L84.1113 109.974L84.1982 110.162C83.9278 112.811 83.2279 114.603 82.0723 114.816L81.6741 114.764L81.3341 114.701C82.4572 114.507 83.239 112.819 83.5332 110.286L83.5694 110.048Z" stroke="#231F20" stroke-width="0.216" stroke-miterlimit="22.926"/>
<path d="M45.2327 107.776L42.2858 108.114C42.963 112.557 44.3802 115.878 45.599 115.738L72.3626 112.516C73.7557 112.34 74.406 108.17 73.7963 103.168C73.1865 98.1659 71.5737 94.2422 70.1805 94.4187L43.4169 97.6398C42.1075 97.8113 41.7534 101.593 42.0175 105.733L44.9388 105.388L45.2327 107.776Z" fill="white"/>
<path d="M88.2175 82.4538C91.3132 82.0736 94.8427 90.2224 96.0616 100.639C97.3062 111.062 95.8187 119.791 92.723 120.172L88.2175 82.4538ZM43.1368 105.346C42.9322 102.624 42.9871 100.164 43.4127 100.113C43.9221 100.057 44.6767 102.981 45.1226 106.647C45.5685 110.313 45.4975 113.346 44.9881 113.402C44.5368 113.446 43.8754 111.097 43.4014 107.946L43.1368 105.346ZM44.745 105.392L42.0237 105.707C41.7596 101.567 42.1206 97.7601 43.4231 97.6142C44.7325 97.4427 46.2872 101.378 46.897 106.381C47.4811 111.376 46.9077 115.566 45.6052 115.712C44.3864 115.853 42.9692 112.531 42.292 108.088L45.2133 107.744L44.745 105.392ZM45.2321 107.776L42.2851 108.114C42.9624 112.557 44.3795 115.878 45.5983 115.738L72.3619 112.517C73.755 112.34 74.4054 108.17 73.7956 103.168C73.1858 98.166 71.573 94.2422 70.1798 94.4188L43.4163 97.6399C42.1069 97.8114 41.7528 101.593 42.0168 105.733L44.9381 105.388L45.2321 107.776Z" stroke="#231F20" stroke-width="0.5" stroke-miterlimit="22.926"/>
<path d="M85.9409 80.7991C85.4959 81.2297 85.0416 82.2077 85.136 83.0853C85.2205 83.7952 85.2711 84.2212 85.4112 85.4409L86.5331 84.9442L86.8133 87.3837L88.232 87.214L87.9637 84.8327L89.6907 85.4604L89.3649 82.6788L94.0793 82.1L94.6575 82.9147L124.896 79.3326C124.896 79.3326 146.689 79.2884 158.714 76.847C158.714 76.847 159.096 76.3444 159.104 75.0821L159.065 74.7143C159.065 74.7143 158.547 73.0631 156.586 73.3076C156.586 73.3076 142.951 75.8125 123.25 75.8399L91.8697 79.5834L88.0971 80.0297C88.0971 80.0297 86.6802 80.0899 85.9409 80.7991Z" fill="#5A5A5A"/>
<path d="M85.9409 80.7991C85.4959 81.2297 85.0416 82.2077 85.136 83.0853C85.2205 83.7952 85.2711 84.2212 85.4112 85.4409L86.5331 84.9442L86.8133 87.3837L88.232 87.214L87.9637 84.8327L89.6907 85.4604L89.3649 82.6788L94.0793 82.1L94.6575 82.9147L124.896 79.3326C124.896 79.3326 146.689 79.2884 158.714 76.847C158.714 76.847 159.096 76.3444 159.104 75.0821L159.065 74.7143C159.065 74.7143 158.547 73.0631 156.586 73.3076C156.586 73.3076 142.951 75.8125 123.25 75.8399L91.8697 79.5834L88.0971 80.0297C88.0971 80.0297 86.6802 80.0899 85.9409 80.7991Z" stroke="#231F20" stroke-width="0.216" stroke-miterlimit="22.926"/>
<path d="M90.6827 83.0866L90.9798 85.668L90.096 85.7886L89.5941 85.4067L89.1938 82.0828L124.979 77.7875C124.979 77.7875 143.192 78.1863 158.96 75.208C158.96 75.208 159.234 75.7214 158.706 76.8721C158.706 76.8721 143.521 80.034 126.148 79.4752L94.7603 83.2444L94.4484 82.6659L90.6827 83.0866Z" fill="white"/>
<path d="M85.6888 81.2261C86.0657 80.6398 86.77 80.4711 86.77 80.4711C88.3769 80.2143 89.2728 82.4064 89.2728 82.4064L85.6888 81.2261ZM90.6835 83.0868L90.9805 85.6683L90.0968 85.7889L89.5949 85.4069L89.1946 82.083L124.98 77.7878C124.98 77.7878 143.193 78.1866 158.96 75.2082C158.96 75.2082 159.235 75.7216 158.707 76.8723C158.707 76.8723 143.522 80.0343 126.148 79.4755L94.7611 83.2446L94.4492 82.6662L90.6835 83.0868Z" fill="#231F20" stroke="#231F20" stroke-width="0.5" stroke-miterlimit="22.926"/>
<path d="M131.637 77.0419L132.185 76.9415L132.201 76.7808C130.815 75.3922 130.634 75.4536 129.657 75.4116L129.166 75.5001L129.002 75.7035C129.844 75.7368 130.232 75.6209 131.562 76.9119L131.637 77.0419Z" fill="white"/>
<path d="M131.637 77.0419L132.185 76.9415L132.201 76.7808C130.815 75.3922 130.634 75.4536 129.657 75.4116L129.166 75.5001L129.002 75.7035C129.844 75.7368 130.232 75.6209 131.562 76.9119L131.637 77.0419Z" stroke="#231F20" stroke-width="0.216" stroke-miterlimit="22.926"/>
<path d="M127.096 77.0627L127.619 76.9554L127.635 76.7946C126.261 75.4642 126.08 75.5256 125.102 75.4837L124.612 75.5721L124.447 75.7755C125.297 75.7832 125.678 75.6929 126.995 76.9257L127.096 77.0627Z" fill="white"/>
<path d="M127.096 77.0627L127.619 76.9554L127.635 76.7946C126.261 75.4642 126.08 75.5256 125.102 75.4837L124.612 75.5721L124.447 75.7755C125.297 75.7832 125.678 75.6929 126.995 76.9257L127.096 77.0627Z" stroke="#231F20" stroke-width="0.216" stroke-miterlimit="22.926"/>
<path d="M135.978 76.9135L136.502 76.8062L136.517 76.6454C135.113 75.2243 134.957 75.2926 133.961 75.2181L133.47 75.3066L133.299 75.5356C134.141 75.569 134.53 75.453 135.852 76.7697L135.978 76.9135Z" fill="white"/>
<path d="M135.978 76.9135L136.502 76.8062L136.517 76.6454C135.113 75.2243 134.957 75.2926 133.961 75.2181L133.47 75.3066L133.299 75.5356C134.141 75.569 134.53 75.453 135.852 76.7697L135.978 76.9135Z" stroke="#231F20" stroke-width="0.216" stroke-miterlimit="22.926"/>
<path d="M140.179 76.6096L140.702 76.5023L140.718 76.3415C139.344 75.0111 139.169 75.0469 138.185 75.0306L137.694 75.119L137.53 75.3224C138.379 75.3301 138.761 75.2398 140.078 76.4726L140.179 76.6096Z" fill="white"/>
<path d="M140.179 76.6096L140.702 76.5023L140.718 76.3415C139.344 75.0111 139.169 75.0469 138.185 75.0306L137.694 75.119L137.53 75.3224C138.379 75.3301 138.761 75.2398 140.078 76.4726L140.179 76.6096Z" stroke="#231F20" stroke-width="0.216" stroke-miterlimit="22.926"/>
<path d="M144.223 76.2908L144.772 76.1904L144.787 76.0296C143.413 74.6992 143.239 74.735 142.261 74.693L141.771 74.7815L141.606 74.9849C142.456 74.9925 142.837 74.9022 144.148 76.1607L144.223 76.2908Z" fill="white"/>
<path d="M144.223 76.2908L144.772 76.1904L144.787 76.0296C143.413 74.6992 143.239 74.735 142.261 74.693L141.771 74.7815L141.606 74.9849C142.456 74.9925 142.837 74.9022 144.148 76.1607L144.223 76.2908Z" stroke="#231F20" stroke-width="0.216" stroke-miterlimit="22.926"/>
<path d="M148.34 75.8816L148.863 75.7744L148.878 75.6136C147.498 74.3089 147.342 74.3771 146.364 74.3352L145.874 74.4236L145.709 74.627C146.559 74.6347 146.94 74.5444 148.239 75.7447L148.34 75.8816Z" fill="white"/>
<path d="M148.34 75.8816L148.863 75.7744L148.878 75.6136C147.498 74.3089 147.342 74.3771 146.364 74.3352L145.874 74.4236L145.709 74.627C146.559 74.6347 146.94 74.5444 148.239 75.7447L148.34 75.8816Z" stroke="#231F20" stroke-width="0.216" stroke-miterlimit="22.926"/>
<path d="M151.941 75.472L152.464 75.3647L152.48 75.2039C151.099 73.8992 150.944 73.9675 149.966 73.9255L149.475 74.014L149.311 74.2174C150.16 74.225 150.549 74.1091 151.841 75.335L151.941 75.472Z" fill="white"/>
<path d="M151.941 75.472L152.464 75.3647L152.48 75.2039C151.099 73.8992 150.944 73.9675 149.966 73.9255L149.475 74.014L149.311 74.2174C150.16 74.225 150.549 74.1091 151.841 75.335L151.941 75.472Z" stroke="#231F20" stroke-width="0.216" stroke-miterlimit="22.926"/>
<path d="M155.476 74.9896L155.999 74.8823L156.008 74.7472C154.646 73.475 154.464 73.5364 153.48 73.52L152.989 73.6085L152.825 73.8119C153.674 73.8196 154.055 73.7293 155.361 74.9039L155.476 74.9896Z" fill="white"/>
<path d="M155.476 74.9896L155.999 74.8823L156.008 74.7472C154.646 73.475 154.464 73.5364 153.48 73.52L152.989 73.6085L152.825 73.8119C153.674 73.8196 154.055 73.7293 155.361 74.9039L155.476 74.9896Z" stroke="#231F20" stroke-width="0.216" stroke-miterlimit="22.926"/>
<path d="M103.584 78.4059L103.585 78.7086L103.472 78.9257C100.235 80.0379 97.6123 79.8849 97.5353 78.7371L97.8928 78.5304L98.2585 78.6009C98.5891 79.2119 100.618 79.1232 103.246 78.2328L103.584 78.4059Z" fill="white"/>
<path d="M103.584 78.4059L103.585 78.7086L103.472 78.9257C100.235 80.0379 97.6123 79.8849 97.5353 78.7371L97.8928 78.5304L98.2585 78.6009C98.5891 79.2119 100.618 79.1232 103.246 78.2328L103.584 78.4059Z" stroke="#231F20" stroke-width="0.216" stroke-miterlimit="22.926"/>
<path d="M113.231 77.2518L113.232 77.5545L113.112 77.7973C109.882 78.8838 107.252 78.7565 107.175 77.6086L107.532 77.402L107.898 77.4725C108.229 78.0835 110.258 77.9947 112.886 77.1044L113.231 77.2518Z" fill="white"/>
<path d="M113.231 77.2518L113.232 77.5545L113.112 77.7973C109.882 78.8838 107.252 78.7565 107.175 77.6086L107.532 77.402L107.898 77.4725C108.229 78.0835 110.258 77.9947 112.886 77.1044L113.231 77.2518Z" stroke="#231F20" stroke-width="0.216" stroke-miterlimit="22.926"/>
<path fill-rule="evenodd" clip-rule="evenodd" d="M111.83 114.157C110.382 115.253 108.869 116.085 107.141 116.282C107.22 116.908 107.299 117.534 107.353 118.153C108.055 118.506 108.831 118.687 109.824 118.568C116.106 117.777 122.4 117.044 128.694 116.311C128.993 116.116 129.311 115.954 129.611 115.759C129.47 114.539 129.305 113.313 129.165 112.093C123.406 112.777 117.614 113.48 111.83 114.157Z" fill="#5A5A5A"/>
<path d="M111.83 114.157C110.382 115.253 108.869 116.085 107.141 116.282C107.22 116.908 107.299 117.534 107.353 118.153C108.055 118.506 108.831 118.687 109.824 118.568C116.106 117.777 122.4 117.044 128.694 116.311C128.993 116.116 129.311 115.954 129.611 115.759C129.47 114.539 129.305 113.313 129.165 112.093C123.406 112.777 117.614 113.48 111.83 114.157Z" stroke="#231F20" stroke-miterlimit="22.926"/>
<path d="M110 118.203C110.832 118.068 111.615 117.811 112.255 117.267L111.884 114.144M112.255 117.267L129.429 115.188L112.255 117.267Z" stroke="#231F20" stroke-width="0.5" stroke-miterlimit="22.926"/>
<path d="M90.3721 119.404C92.9841 119.087 95.284 109.888 94.1965 100.827C93.0701 91.3971 88.8244 83.3587 86.1612 83.6623L83.4912 83.9916L56.1088 87.2668L55.5338 87.7726L54.89 87.4077L37.2066 89.5426C23.6686 95.7851 9.04852 99.8132 9.04852 99.8132C8.16289 100.043 7.94914 100.123 7.39164 100.359C5.69853 101.142 5.28495 103.506 5.28495 103.506C3.25242 112.117 7.10678 118.95 7.10678 118.95C7.88566 120.451 8.76638 121.265 9.91582 121.793C10.8228 122.2 11.7509 122.119 11.7509 122.119C23.2418 121.569 41.45 125.266 41.45 125.266L59.1591 123.138L59.7084 122.625L60.4035 123.004L90.3721 119.404Z" fill="#231F20"/>
<path d="M9.40666 121.024C10.8637 122.761 11.736 119.916 11.736 119.916C14.0518 112.811 9.9729 104.047 9.9729 104.047C7.92442 100.007 6.87824 101.348 6.87824 101.348C6.87824 101.348 6.48638 101.683 6.48392 102.205" fill="#5A5A5A"/>
<path d="M9.40666 121.024C10.8637 122.761 11.736 119.916 11.736 119.916C14.0518 112.811 9.9729 104.047 9.9729 104.047C7.92442 100.007 6.87824 101.348 6.87824 101.348C6.87824 101.348 6.48638 101.683 6.48392 102.205" stroke="#231F20" stroke-width="0.25" stroke-miterlimit="22.926"/>
<path d="M8.88488 111.179C9.06749 112.547 8.95132 113.698 8.57695 113.763C8.23506 113.809 7.78372 112.726 7.60111 111.357C7.41851 109.989 7.53467 108.837 7.90905 108.773C8.25093 108.727 8.70228 109.81 8.88488 111.179Z" fill="#231F20"/>
<path d="M25.4533 121.199L41.4151 123.029L46.1133 121.896L41.6887 120.573L25.4533 121.199ZM21.2807 95.6673L37.0889 91.4078L40.7275 89.0011L36.1137 89.7169L21.2807 95.6673ZM23.4355 101.771L39.8215 99.8655L44.0958 97.5467L39.0906 97.0579L23.4355 101.771ZM25.7451 112.012L42.1968 111.912L46.7849 110.062L41.9566 109.015L25.7451 112.012ZM60.8287 89.631C60.8287 89.631 65.152 90.1021 67.2421 90.1947C67.2421 90.1947 68.3571 89.7237 68.1982 88.4714C68.1982 88.4714 67.8787 87.2036 66.7694 87.3462L60.8287 89.631ZM88.7605 110.752C89.2114 114.502 84.954 118.09 79.2789 118.769C73.6038 119.447 68.6391 116.962 68.1882 113.212C67.7373 109.463 71.9946 105.874 77.6697 105.196C83.3448 104.517 88.3352 107.009 88.7605 110.752ZM54.9697 87.5112C54.9697 87.5112 64.3048 102.797 59.0324 122.884L54.9697 87.5112Z" fill="#5A5A5A"/>
<path d="M54.9697 87.5112C54.9697 87.5112 64.3048 102.797 59.0324 122.884M25.4533 121.199L41.4151 123.029L46.1133 121.896L41.6887 120.573L25.4533 121.199ZM21.2807 95.6673L37.0889 91.4078L40.7275 89.0011L36.1137 89.7169L21.2807 95.6673ZM23.4355 101.771L39.8215 99.8655L44.0958 97.5467L39.0906 97.0579L23.4355 101.771ZM25.7451 112.012L42.1968 111.912L46.7849 110.062L41.9566 109.015L25.7451 112.012ZM60.8287 89.631C60.8287 89.631 65.152 90.1021 67.2421 90.1947C67.2421 90.1947 68.3571 89.7237 68.1982 88.4714C68.1982 88.4714 67.8787 87.2036 66.7694 87.3462L60.8287 89.631ZM88.7605 110.752C89.2114 114.502 84.954 118.09 79.2789 118.769C73.6038 119.447 68.6391 116.962 68.1882 113.212C67.7373 109.463 71.9946 105.874 77.6697 105.196C83.3448 104.517 88.3352 107.009 88.7605 110.752Z" stroke="#231F20" stroke-width="0.5" stroke-miterlimit="22.926"/>
<path d="M90.3721 119.404C92.9841 119.087 95.284 109.888 94.1965 100.827C93.0701 91.3971 88.8244 83.3587 86.1612 83.6623L83.4912 83.9916L56.1088 87.2668L55.5338 87.7726L54.89 87.4077L37.2066 89.5426C23.6686 95.7851 9.04852 99.8132 9.04852 99.8132C8.16289 100.043 7.94914 100.123 7.39164 100.359C5.69853 101.142 5.28495 103.506 5.28495 103.506C3.25242 112.117 7.10678 118.95 7.10678 118.95C7.88566 120.451 8.76638 121.265 9.91582 121.793C10.8228 122.2 11.7509 122.119 11.7509 122.119C23.2418 121.569 41.45 125.266 41.45 125.266L59.1591 123.138L59.7084 122.625L60.4035 123.004L90.3721 119.404Z" stroke="#231F20" stroke-miterlimit="22.926"/>
</svg>
