<svg width="70" height="70" viewBox="0 0 70 70" xmlns="http://www.w3.org/2000/svg">
<path fill-rule="evenodd" clip-rule="evenodd" d="M53.5938 35.0558V35C53.5938 34.2256 53.4756 33.4786 53.2612 32.7742L58.5145 28.572C60.3969 27.0659 60.7031 24.3064 59.1948 22.4208C58.3581 21.3784 57.1145 20.7802 55.7802 20.7802C54.7925 20.7802 53.8213 21.1214 53.0469 21.7394L46.0359 27.3481C46.0188 27.3481 46.0023 27.347 45.9859 27.3459C45.9698 27.3448 45.9538 27.3438 45.9375 27.3438C42.875 27.3438 40.2336 29.1561 39.0097 31.7614C38.372 31.2156 37.6753 30.7398 36.913 30.3592C35.8564 29.832 34.7277 29.4897 33.5563 29.3431L27.1677 28.5447L26.6448 25.9295C28.0503 24.9813 29.143 23.5922 29.8244 21.8761H30.625C33.0378 21.8761 35 19.9139 35 17.5011C35 16.4806 34.6347 15.5531 34.0473 14.8083C34.382 13.767 35 11.6036 35 9.84375C35 7.62672 33.3408 5.78813 31.2003 5.50594L30.6447 4.76656C28.9209 2.46641 26.1756 1.09375 23.3002 1.09375C22.2283 1.09375 21.1728 1.27969 20.1622 1.64609L12.9675 4.26234C10.4453 5.18 8.75 7.59938 8.75 10.2834C8.75 10.8052 8.81453 11.328 8.94578 11.8562L9.73 14.7766C9.12625 15.5258 8.75 16.4653 8.75 17.5C8.75 19.9128 10.7122 21.875 13.125 21.875H13.9256C14.607 23.5922 15.6997 24.9802 17.1052 25.9284L16.5823 28.5436L10.1937 29.342C9.02234 29.4886 7.8925 29.8309 6.83703 30.3581C3.29437 32.13 1.09375 35.6902 1.09375 39.6506V51.4062C1.09375 53.8191 3.05594 55.7812 5.46875 55.7812H7.65625V68.9062H26.25H28.4375H60.1562H63.4375H68.9062V51.4062C68.9062 42.7295 62.1305 35.6223 53.5938 35.0558ZM60.1562 60.1562H53.5938V59.0625C53.5938 57.2534 52.1216 55.7812 50.3125 55.7812H42.6562V51.4062H51.4062V47.0312H53.5938V43.8375C57.2972 44.3713 60.1562 47.5573 60.1562 51.4062V60.1562ZM36.0938 59.0625C36.0938 58.4598 36.5838 57.9688 37.1875 57.9688H50.3125C50.9162 57.9688 51.4062 58.4598 51.4062 59.0625V60.1562H36.0938V59.0625ZM49.2188 47.0312V49.2188H42.6562V47.0312H49.2188ZM54.4141 23.4478C55.323 22.7183 56.7613 22.8813 57.4875 23.788C58.2411 24.7308 58.0891 26.1111 57.1473 26.8647L52.2977 30.7442C51.4544 29.4875 50.2469 28.4966 48.8294 27.9158L54.4141 23.4478ZM40.4688 35C40.4688 31.9845 42.922 29.5312 45.9375 29.5312C48.953 29.5312 51.4062 31.9845 51.4062 35V44.8438H40.4688V35ZM22 36L26.7225 30.6928L30.3264 31.1423L33.285 31.512C34.2103 31.628 35.1017 31.8981 35.9352 32.3148C36.8517 32.772 37.6512 33.3933 38.3327 34.1447C38.3009 34.4269 38.2812 34.7113 38.2812 35V47.0312H40.4688V51.4062V55.7812H37.1875C36.8025 55.7812 36.4372 55.86 36.0938 55.9825V39.375H33.9062V59.0625V60.1562C30.0573 60.1562 26.8713 63.0142 26.3375 66.7188H26.0414H22.9688H20.7812H15H9.84375V55.7812H15V55.7703H20.5H25.468C27.7359 55.6099 29.5312 53.7142 29.5312 51.4062C29.5312 49.2666 27.9882 47.4813 25.9562 47.1045L14 47.0352V47.0312H9.84375V39.375H7.65625V49.2188H20.7812V53.5938H5.46875C4.26234 53.5938 3.28125 52.6127 3.28125 51.4062V39.6506C3.28125 36.5247 5.01922 33.7127 7.81594 32.3148C8.64937 31.8981 9.54078 31.628 10.4661 31.512L15.5936 30.8722L17.0275 30.6928L22 36ZM15.3125 13.125V13.0747C17.7494 12.8494 20.0287 11.8727 21.875 10.2583C23.7223 11.8737 26.0006 12.8494 28.4375 13.0747V13.125H15.3125ZM15.3125 17.5V15.3125H28.4375V17.5C28.4375 17.8773 28.4145 18.2394 28.3817 18.5938H23.8755C23.5878 18.5938 23.3056 18.4767 23.1022 18.2733L21.875 17.0472L20.6489 18.2733C20.4444 18.4767 20.1633 18.5938 19.8756 18.5938H15.3694C15.3355 18.2394 15.3125 17.8773 15.3125 17.5ZM30.625 19.6875H30.4391C30.5594 18.9908 30.625 18.2623 30.625 17.5V15.3125C31.8314 15.3125 32.8125 16.2936 32.8125 17.5C32.8125 18.7064 31.8314 19.6875 30.625 19.6875ZM13.7145 6.31859L20.9092 3.70234C21.6781 3.42234 22.4831 3.28125 23.3002 3.28125C25.4898 3.28125 27.5822 4.32687 28.8958 6.07906L30.0781 7.65625H30.625C31.8314 7.65625 32.8125 8.63734 32.8125 9.84375C32.8125 10.9878 32.4702 12.4173 32.1803 13.4236C31.6958 13.2377 31.1752 13.125 30.625 13.125V10.9375H29.5312C27.0014 10.9375 24.6247 9.95312 22.8353 8.16266L21.875 7.20562L20.9136 8.16375C19.1253 9.95312 16.7486 10.9375 14.2188 10.9375H13.125V13.125C12.5967 13.125 12.0958 13.2333 11.6266 13.4061L11.0633 11.3083C10.9802 10.9725 10.9375 10.6269 10.9375 10.2834C10.9375 8.51594 12.0542 6.92234 13.7145 6.31859ZM13.125 19.6875C11.9186 19.6875 10.9375 18.7064 10.9375 17.5C10.9375 16.2936 11.9186 15.3125 13.125 15.3125V17.5C13.125 18.2623 13.1906 18.9908 13.3109 19.6875H13.125ZM15.8233 20.7812H19.8756C20.6084 20.7812 21.3052 20.5428 21.875 20.102C22.4448 20.5428 23.1416 20.7812 23.8744 20.7812H27.9267C26.9905 23.5134 24.8194 25.1562 21.875 25.1562C18.9306 25.1562 16.7595 23.5134 15.8233 20.7812ZM21.875 27.3438C22.8484 27.3438 23.765 27.1983 24.6138 26.9248L25.0775 29.2447L21.875 33.2489L18.6725 29.2458L19.1362 26.9259C19.985 27.1983 20.9016 27.3438 21.875 27.3438ZM22.9688 49.2188H25.1562C26.3627 49.2188 27.3438 50.1998 27.3438 51.4062C27.3438 52.6127 26.3627 53.5938 25.1562 53.5938H22.9688V49.2188ZM28.548 66.7188C29.0566 64.2261 31.2648 62.3438 33.9062 62.3438H60.1562V66.7188H28.548ZM66.7188 66.7188H63.4375H62.3438V51.4062C62.3438 46.3488 58.508 42.1728 53.5938 41.627V37.2433C60.923 37.8055 66.7188 43.9348 66.7188 51.4062V66.7188Z" />
</svg>
