<svg width="19" height="19" viewBox="0 0 19 19" xmlns="http://www.w3.org/2000/svg">
<path d="M19 3.60881C18.2934 3.91875 17.5406 4.12419 16.7556 4.22394C17.5631 3.74181 18.1794 2.98419 18.4692 2.071C17.7163 2.51987 16.8851 2.83694 15.9992 3.01388C15.2843 2.25269 14.2654 1.78125 13.1539 1.78125C10.9974 1.78125 9.26131 3.53163 9.26131 5.67744C9.26131 5.98619 9.28744 6.28306 9.35156 6.56569C6.11325 6.40775 3.24781 4.85569 1.32287 2.49138C0.986812 3.07444 0.789688 3.74181 0.789688 4.46025C0.789688 5.80925 1.48438 7.00506 2.51988 7.69737C1.89406 7.6855 1.28013 7.50381 0.76 7.21763C0.76 7.2295 0.76 7.24494 0.76 7.26038C0.76 9.15325 2.11019 10.7255 3.88075 11.0877C3.56369 11.1744 3.21812 11.2159 2.8595 11.2159C2.61013 11.2159 2.35837 11.2017 2.12206 11.1494C2.62675 12.692 4.05888 13.8261 5.76175 13.8629C4.4365 14.8996 2.75381 15.5242 0.932188 15.5242C0.61275 15.5242 0.306375 15.5099 0 15.4707C1.72544 16.5834 3.77031 17.2188 5.9755 17.2188C13.1432 17.2188 17.062 11.2812 17.062 6.13462C17.062 5.96244 17.0561 5.79619 17.0478 5.63113C17.8208 5.0825 18.4704 4.39731 19 3.60881Z" />
</svg>
