<svg width="29" height="29" viewBox="0 0 29 29" xmlns="http://www.w3.org/2000/svg">
<path d="M25.7129 13.1444C26.1253 12.6113 26.4527 12.1836 26.6945 11.8608C28.4358 9.54568 29.1906 8.06675 28.9593 7.42196L28.8685 7.27095C28.8082 7.18025 28.6519 7.09695 28.4005 7.02156C28.1487 6.94621 27.8267 6.93418 27.4343 6.98391L23.0858 7.01458C22.9852 7.00456 22.8844 7.0069 22.7838 7.02156C22.6831 7.03686 22.6178 7.05223 22.5874 7.06688C22.557 7.08224 22.532 7.09456 22.512 7.10458L22.4517 7.1499C22.4014 7.17992 22.3461 7.23293 22.2857 7.30865C22.2253 7.38432 22.1747 7.47202 22.1347 7.57302C21.6616 8.79091 21.1231 9.92348 20.5191 10.9704C20.1466 11.5945 19.8042 12.1359 19.4926 12.5933C19.1805 13.0518 18.9187 13.3889 18.7073 13.6049C18.496 13.8212 18.3046 13.9952 18.1336 14.1257C17.9622 14.257 17.8316 14.312 17.7412 14.292C17.6505 14.272 17.5648 14.252 17.4845 14.2313C17.3435 14.141 17.2301 14.018 17.1448 13.8616C17.0591 13.706 17.0014 13.5095 16.971 13.2728C16.941 13.0364 16.923 12.8324 16.9184 12.661C16.913 12.49 16.9157 12.2487 16.926 11.9362C16.9361 11.6241 16.941 11.4131 16.941 11.3021C16.941 10.92 16.9487 10.5046 16.9638 10.0566C16.9788 9.60882 16.9915 9.25374 17.0014 8.99198C17.0115 8.7306 17.0164 8.45353 17.0164 8.16148C17.0164 7.87009 16.9988 7.64068 16.9633 7.47437C16.928 7.30865 16.875 7.14762 16.805 6.99127C16.7343 6.83557 16.6313 6.71453 16.4952 6.62921C16.3593 6.54352 16.1908 6.47586 15.9895 6.42514C15.4557 6.3041 14.7763 6.23943 13.9511 6.22881C12.0788 6.20947 10.8759 6.33014 10.3424 6.59152C10.131 6.70254 9.93967 6.85322 9.76867 7.0446C9.58731 7.26632 9.56231 7.38731 9.69332 7.40665C10.2974 7.49736 10.7249 7.71406 10.9766 8.05612L11.0673 8.23715C11.1376 8.36849 11.208 8.59991 11.2787 8.93195C11.349 9.26404 11.3944 9.63143 11.4147 10.0342C11.465 10.769 11.465 11.3978 11.4147 11.9216C11.3643 12.4453 11.3167 12.8528 11.2714 13.1441C11.226 13.4362 11.158 13.6726 11.0676 13.8536C10.9769 14.0353 10.9166 14.146 10.8863 14.1863C10.8559 14.2263 10.8309 14.2516 10.8109 14.2617C10.6799 14.3117 10.5442 14.337 10.4032 14.337C10.2622 14.337 10.0911 14.2663 9.88977 14.1253C9.68837 13.9849 9.47934 13.7909 9.26328 13.5442C9.04658 13.2978 8.80285 12.9528 8.53079 12.5097C8.25906 12.0673 7.97698 11.5435 7.68526 10.9397L7.44387 10.5016C7.29286 10.2202 7.08645 9.80979 6.82474 9.27134C6.56303 8.73289 6.33129 8.21215 6.13027 7.7084C6.04959 7.49736 5.92887 7.33632 5.76789 7.2253L5.69255 7.17997C5.64221 7.13993 5.56153 7.09695 5.45084 7.0519C5.33981 7.00658 5.22449 6.97389 5.10344 6.95357L0.966309 6.98359C0.543569 6.98359 0.256858 7.07963 0.105848 7.27095L0.0454881 7.36133C0.0149811 7.41199 0 7.49267 0 7.60304C0 7.71406 0.0303436 7.84977 0.0907038 8.01047C0.694797 9.43008 1.35162 10.799 2.06107 12.1173C2.77091 13.4362 3.38737 14.4984 3.91078 15.3036C4.43419 16.1094 4.96763 16.8688 5.51142 17.5836C6.0552 18.2984 6.41491 18.7561 6.59093 18.9572C6.76694 19.1589 6.90531 19.31 7.00604 19.4103L7.38345 19.773C7.62484 20.0144 7.97992 20.3038 8.44804 20.6412C8.9161 20.9786 9.43423 21.3107 10.0034 21.6374C10.5718 21.9648 11.2339 22.2311 11.9887 22.4379C12.7435 22.6446 13.4783 22.7275 14.1931 22.6869H15.9295C16.2819 22.6569 16.5485 22.5466 16.7297 22.3548L16.79 22.2795C16.8299 22.2194 16.868 22.1261 16.9033 22.0004C16.9383 21.8747 16.9564 21.736 16.9564 21.5853C16.946 21.1526 16.979 20.7619 17.0544 20.4151C17.1297 20.0677 17.2154 19.8063 17.3111 19.6297C17.4068 19.4539 17.5148 19.3053 17.6358 19.1842C17.7565 19.0632 17.8419 18.9908 17.8925 18.9655C17.9429 18.9408 17.9833 18.9232 18.0133 18.9125C18.2546 18.8321 18.539 18.9101 18.8664 19.1465C19.1935 19.3836 19.5006 19.6749 19.7876 20.0223C20.0743 20.3697 20.419 20.7595 20.8218 21.1925C21.2242 21.6253 21.5766 21.9473 21.8786 22.1587L22.1807 22.3404C22.382 22.4608 22.6434 22.5715 22.9658 22.6725C23.2879 22.7729 23.57 22.7982 23.8113 22.7479L27.6767 22.6872C28.0591 22.6872 28.3562 22.6245 28.5676 22.4985C28.7789 22.3734 28.9047 22.2341 28.945 22.0834C28.985 21.9324 28.9877 21.762 28.9527 21.5703C28.9174 21.3792 28.8821 21.2459 28.8471 21.1705C28.8118 21.0952 28.779 21.0318 28.7486 20.9818C28.2453 20.076 27.284 18.9634 25.8648 17.6449L25.8344 17.6148L25.8194 17.5995L25.8044 17.5848H25.7893C25.1448 16.9707 24.7374 16.5579 24.5664 16.3462C24.2544 15.9442 24.1837 15.5364 24.355 15.1237C24.4751 14.8108 24.9278 14.1513 25.7129 13.1444Z"/>
</svg>
