<svg width="150" height="219" viewBox="0 0 150 219" fill="none" xmlns="http://www.w3.org/2000/svg">
<path d="M57.3031 201.901C57.3031 195.698 58.0752 174.683 58.4372 170.397C58.8836 165.171 60.7355 150.178 60.7657 147.881C60.826 142.558 60.814 137.235 60.8321 131.918C60.8321 130.52 52.9477 121.725 50.0461 119.59C50.1788 118.029 51.5904 117.921 52.5918 117.378C56.9351 115.015 60.1926 111.718 61.743 106.841C57.0377 112.236 52.4168 117.692 44.9548 119.235C40.0082 119.313 35.4296 121.188 30.7002 122.249C21.3801 124.389 13.5561 121.917 6.26292 116.082C-0.662285 110.542 -0.046979 103.079 0.731201 95.7364C1.26205 90.7088 6.76361 86.8808 11.9273 86.8989C13.3329 86.8989 14.7324 86.8447 16.15 86.8206C22.2186 84.7107 28.058 82.221 32.3772 77.1752C32.896 76.5724 33.3002 75.8671 34.1568 75.6682C36.9256 76.4579 39.4411 77.9891 42.3186 78.4593C46.022 79.2845 49.8971 78.8032 53.2855 77.0969C54.2628 76.6267 55.1918 76.0238 56.3379 76.0359C58.9319 76.5423 61.1638 78.1579 63.8302 78.4472C72.6797 80.1472 78.6337 76.066 80.6123 67.3672C82.422 59.4038 78.9172 52.2542 69.4644 50.9882C64.9281 50.4457 60.7717 51.7779 56.7059 53.5623C54.1542 53.5623 47.2471 50.8496 45.9622 50.8857C39.3869 50.9219 34.3257 53.701 30.8269 59.2772C29.5118 59.9644 28.6492 59.3314 27.7322 58.385C24.8849 55.4612 22.6711 52.0673 20.3425 48.7397C19.1964 47.118 8.56729 40.6497 7.78308 39.6972C5.78635 37.8887 3.45784 36.454 2.35391 33.8437C0.652772 29.9434 1.68432 28.2615 5.79239 28.171C9.90046 28.0806 13.9965 28.2615 17.8572 26.459C22.8339 24.6505 27.509 25.8562 32.0997 27.8877C34.0976 28.828 36.0375 29.8869 37.9089 31.0586C38.6268 31.4866 39.4472 32.3728 40.3219 31.6253C40.9915 31.0586 40.5994 30.1001 40.4365 29.3345C39.4653 24.7289 38.114 18.803 36.7205 15.7286C36.218 14.5471 35.7909 13.335 35.4417 12.0995C34.7479 9.98963 34.5247 7.87972 36.4732 6.32442C38.8862 4.37124 41.5887 4.30493 44.3515 5.64321C46.9093 7.90383 48.17 10.9481 49.4429 13.9924C51.0716 18.5016 52.0187 23.1977 53.0623 27.8576C53.4785 29.7324 54.2688 30.7451 56.2354 30.6005C56.9578 30.6056 57.679 30.541 58.3889 30.4075C58.7391 30.3517 59.0978 30.42 59.403 30.6005C59.7081 30.781 59.9405 31.0625 60.0599 31.3962C60.3193 32.0593 60.6209 32.216 61.4051 31.999C64.3128 31.2575 64.3309 31.3178 63.6492 34.1572C63.5883 34.3376 63.5752 34.5307 63.6112 34.7177C63.6471 34.9046 63.7309 35.0791 63.8543 35.2242C65.7002 34.6213 66.9308 32.7586 68.8491 32.2944C71.3164 31.6916 71.9799 33.9341 73.1925 35.3086C75.6054 34.2838 75.159 29.9313 78.8569 30.3533C79.7117 30.4632 80.525 30.7866 81.2216 31.2937C88.551 32.0955 88.8888 32.1738 90.3848 25.5969C91.7542 19.5686 100.423 9.429 100.761 8.58504C102.643 5.72761 112.572 -0.306736 115.371 1.00141C118.846 3.44891 119.461 6.82476 118.538 10.701C116.867 12.8049 114.267 13.5885 112.174 15.1137C105.472 20.0027 102.685 26.7725 102.365 34.76C102.257 37.5873 103.934 39.1546 106.715 39.5284C107.063 39.7374 107.353 40.031 107.558 40.382C107.762 40.7329 107.875 41.1298 107.885 41.5358C107.885 44.5018 109.888 45.2854 112.258 45.3638C117.645 45.5447 122.574 44.6645 125.922 39.655C128.938 35.1277 132.039 30.6788 132.515 25.0604C132.642 23.6257 134.669 22.4441 133.329 20.9853C132.304 19.8701 130.543 20.0147 129.107 19.6108C128.437 19.424 127.713 19.3576 127.249 18.7428C129.149 17.8988 138.801 14.1552 141.425 12.3769C144.441 10.3152 146.124 10.4297 148.278 12.4251C149.611 13.6307 149.78 14.9389 148.658 16.3736C147.536 17.8084 145.835 18.8754 144.296 19.9906C141.835 21.7991 139.67 23.8186 139.054 27.0015C137.789 33.5069 135.135 39.6631 131.272 45.0503C130.323 46.4686 129.09 47.6751 127.651 48.5943C126.212 49.5135 124.598 50.1253 122.912 50.3914C119.455 50.9943 116.041 51.6694 112.5 51.5971C110.231 51.5971 108.953 52.8028 108.361 55.1478C107.155 59.9162 107.457 64.6243 107.921 69.453C108.633 76.7593 108.283 84.0536 105.424 90.9982C105.102 91.7376 104.615 92.3934 104 92.9152C102.245 93.9701 100.157 93.8978 98.2812 94.5971C93.8716 96.2368 90.7829 99.0701 89.5946 103.748C89.0818 106.159 89.3714 108.571 89.3653 110.946C89.3973 111.847 89.2194 112.744 88.8457 113.565C88.472 114.386 87.9127 115.11 87.2118 115.678C85.1487 117.438 82.9891 119.078 80.8958 120.784C77.385 123.629 75.5873 127.066 75.4063 131.876C75.0022 142.486 75.2435 153.114 74.4955 163.718C74.0973 169.396 74.3326 175.105 74.3024 180.808C74.2361 194.131 74.1818 207.459 73.9706 220.788C73.85 228.353 73.9706 235.997 74.218 243.599C74.3265 246.68 74.8514 249.814 73.5484 252.804C73.1709 253.513 72.583 254.088 71.8653 254.45C64.1921 258.423 64.2645 270.817 70.3029 276.875C71.0751 277.653 71.998 278.268 72.6375 279.184C74.0129 280.565 74.3688 282.289 74.3386 284.146C74.1576 294.84 75.3883 305.504 74.9419 316.204C74.9336 318.203 75.1195 320.197 75.4968 322.16C75.708 323.541 75.9915 324.933 75.3521 326.289C75.1356 326.754 74.8207 327.165 74.4291 327.495C71.8415 328.309 69.4821 329.72 67.5421 331.614C65.6021 333.509 64.1362 335.834 63.2631 338.4C62.4789 340.498 63.42 342.873 61.9481 344.766H53.5389C53.6113 334.199 53.8948 311.086 53.9672 310.097C55.7769 312.171 54.5704 314.667 54.9263 316.946C55.0952 317.988 54.3834 319.58 55.4874 319.96C56.7843 320.394 57.7616 318.989 58.5639 318.025C61.5439 314.45 60.9768 308.331 57.3876 304.256C56.3379 303.05 54.9444 302.164 54.3714 300.573C55.1737 290.083 54.5342 279.576 54.7695 269.075C54.8962 263.372 56.4344 237.649 56.0725 230.433C58.7871 229.119 61.7671 228.48 64.4394 227.081C70.5503 223.874 72.2816 221.945 69.0663 213.982C67.4013 209.834 64.1137 206.995 60.7174 204.282C59.6437 203.438 58.2803 202.938 57.3031 201.901Z" fill="#E76326"/>
<path d="M41.9746 79.0429C39.1618 78.755 36.4936 77.6553 34.2954 75.878C33.3543 75.7876 32.727 74.9677 31.8161 74.805C29.9641 73.9489 29.2775 69.9868 29 68.4435C29 64.8072 29.0834 62.1756 29.4996 60.5239C29.7764 59.9799 30.1459 59.4883 30.5915 59.0711C33.4991 52.9885 38.7171 50.0286 45.9017 50.3601C48.5379 50.1672 50.7699 51.2764 52.7606 52.7715C54.0696 53.7541 55.2097 53.947 56.567 53.1332C60.6087 50.3782 65.1029 49.7874 69.8383 50.324C70.0434 50.541 70.2304 50.8484 70.5019 50.9268C78.0967 53.097 79.0679 60.4455 78.2958 66.5462C77.979 68.7336 77.3087 70.8551 76.3111 72.8277C73.7292 78.1386 69.9168 79.9712 63.7637 79.0248C60.9767 79.2117 58.7146 77.9096 56.5248 76.4567C54.4135 75.3234 52.6701 75.8539 50.9388 77.4092C48.3268 79.7542 45.1597 79.6156 41.9746 79.0429Z" fill="#F3F3F3"/>
<path d="M106.624 39.8285C108.048 38.1817 109.061 36.2212 109.58 34.1076C110.871 28.9655 114.967 26.0538 118.761 22.8347C120.873 21.0262 128.075 18.2652 127.207 18.7234C128.98 18.9585 130.826 18.9283 132.491 19.501C134.156 20.0737 136.364 20.4716 134.041 23.3652C132.171 25.6981 133.052 29.3935 131.393 32.0942C128.377 37.0314 126.368 42.915 120.257 45.1334C116.635 46.5045 112.659 46.6275 108.959 45.4831C108.412 45.3653 107.929 45.0465 107.606 44.5898C107.283 44.1332 107.144 43.572 107.215 43.0175C107.354 41.9189 107.147 40.8044 106.624 39.8285Z" fill="#CC5E29"/>
<path d="M103.566 92.793C105.722 88.6743 106.971 84.1418 107.228 79.5006C107.644 74.1354 107.004 68.8064 106.582 63.4834C106.305 59.9146 107.155 56.5387 107.921 53.1629C108.332 51.3544 110.292 50.6189 111.897 50.7515C116.065 51.1675 119.992 49.8895 124.004 49.353C125.149 49.1927 126.249 48.7958 127.232 48.1876C128.216 47.5794 129.062 46.7732 129.716 45.8204C131.623 43.0232 133.131 39.9609 134.989 37.1336C137.118 33.8903 136.515 29.767 138.608 26.5479C139.519 27.5787 139.115 28.8326 139.175 29.9961C139.429 34.8669 138.614 39.786 139.911 44.6147C140.279 45.9711 139.676 47.1466 138.638 48.081C137.812 49.0636 132.359 50.4923 131.116 51.698C127.587 55.11 123.708 57.6359 118.448 56.7196C116.674 56.4019 114.846 56.7566 113.32 57.7143C111.939 57.7745 111.239 58.6306 111.366 59.8724C111.933 65.4546 113.085 71.079 112.428 76.6492C111.794 81.9782 112.066 87.0481 109.647 91.8406C109.478 92.1782 109.236 92.4796 109.043 92.8051C107.185 94.0831 105.376 94.2639 103.566 92.793Z" fill="#B95C2D"/>
<path d="M57.3034 201.9C62.8291 203.528 66.0745 207.778 69.1329 212.214C70.7074 214.499 71.0331 217.206 71.4614 219.852C71.5984 220.753 71.4942 221.673 71.1594 222.521C70.8245 223.368 70.271 224.111 69.5552 224.675C65.6764 227.93 61.2486 230.1 56.0909 230.462C55.2463 220.889 57.4723 211.443 57.3034 201.9Z" fill="#683137"/>
<path d="M103.565 92.7935H108.995C108.995 93.0105 108.186 96.7179 107.981 97.2484C107.981 97.4292 95.5544 114.272 94.1066 115.508C93.1957 116.298 92.4416 117.63 90.837 117.051C89.341 115.749 89.2626 113.941 89.1117 112.175C88.8584 109.16 88.4421 106.146 89.1117 103.102C90.65 97.176 94.8063 94.2825 101.78 92.9261C102.372 92.8492 102.968 92.8049 103.565 92.7935Z" fill="#653036"/>
<path d="M81.7885 254.334C79.7495 252.357 77.1737 252.604 74.6582 252.622C74.6582 251.332 75.7501 251.248 76.5644 251.157C78.6818 250.934 79.279 249.614 79.086 247.818C78.1992 239.535 78.8809 231.192 78.169 222.903C77.6382 216.796 77.9941 210.677 77.9217 204.565C77.8614 199.139 77.9217 193.714 77.9217 188.324C77.9217 186.926 77.8312 185.509 78.4466 184.183C79.7315 183.098 79.7676 181.621 79.7676 180.108C79.7676 173.702 79.7676 167.293 79.7676 160.883C79.7676 149.683 79.7676 138.482 79.84 127.288C80.1718 123.803 84.5634 120.837 87.4047 119.589C89.5341 118.48 80.8776 127.474 81.131 132.761C81.5472 141.683 80.9741 150.641 81.2275 159.575C82.066 189.277 80.5398 218.978 81.2938 248.674C81.3361 250.567 81.6136 252.447 81.7885 254.334Z" fill="#96593B"/>
<path d="M44.9551 119.234C46.2701 117.775 48.2427 117.594 49.8474 116.708C53.9192 114.453 57.044 111.186 59.6138 107.346C60.2171 106.423 60.7358 104.862 62.1716 105.586C63.746 106.375 62.618 107.671 62.1716 108.69C60.1748 113.157 56.676 116.159 52.3327 118.257C51.5244 118.649 50.6436 118.86 50.0223 119.589L44.9551 119.234Z" fill="#454437"/>
<path d="M112.403 76.6618C112.115 76.5784 111.865 76.3988 111.693 76.1531C111.522 75.9073 111.44 75.6102 111.462 75.3115C111.395 70.0666 110.992 64.8313 110.255 59.6379C110.175 59.1416 110.248 58.6328 110.463 58.1786C110.679 57.7244 111.027 57.3462 111.462 57.0939C112.306 56.5393 112.97 56.696 113.272 57.7389C112.065 62.3265 112.795 67.0045 112.602 71.6463C112.56 73.3101 112.475 74.986 112.403 76.6618Z" fill="#8E5236"/>
<path d="M31.8223 74.7927C33.3485 73.5388 33.5113 75.4257 34.3016 75.8657C30.7545 81.7735 24.6135 83.9798 18.7983 86.6082C18.0322 86.9518 17.0308 86.7649 16.144 86.8252C19.6489 84.6128 23.7147 83.4494 27.0506 80.9235C28.8309 79.4567 30.4488 77.8035 31.8766 75.9923C31.8223 75.6005 31.8223 75.2026 31.8223 74.7927Z" fill="#BEABA1"/>
<path d="M91.4466 117.039C91.4466 118.45 80.914 124.683 80.6667 126.612C79.7739 129.102 79.8523 131.712 79.798 134.28C79.6854 139.665 79.6854 145.053 79.798 150.442C79.8644 153.655 79.05 156.766 79.0681 159.961C79.0681 162.191 77.005 163.294 76.1967 165.085C73.5786 170.335 75.2436 175.116 77.7712 179.83C78.4347 181.066 79.8282 182.151 78.8992 183.857C78.8992 196.082 78.4045 208.332 79.044 220.521C79.5205 229.69 78.8208 238.908 80.0997 248.034C80.5219 251.049 79.5507 252.598 76.257 252.013C75.9617 251.942 75.6516 251.961 75.3674 252.068C75.0833 252.176 74.8382 252.367 74.6645 252.616L72.8547 253.171C74.2181 248.559 73.0357 243.863 73.3192 239.215C73.4942 236.279 73.4459 233.325 73.4218 230.377C73.4218 228.189 73.645 226.013 73.0478 223.813C72.0886 220.262 73.3977 216.705 73.3373 213.094C73.096 199.229 73.2288 185.292 73.5304 171.39C73.7415 161.528 73.9104 151.654 74.2241 141.797C74.3628 137.415 74.4594 133.008 74.7067 128.619C74.9299 124.653 77.8918 122.338 80.528 119.939C82.4403 118.182 84.4699 116.556 86.6026 115.074C88.3399 113.868 88.5812 112.373 88.6234 110.462C88.6777 108.015 87.8754 105.483 89.1422 103.12C89.0638 107.9 89.1302 112.662 91.4466 117.039Z" fill="#B75A2B"/>
<path d="M73.0236 23.6365C73.0236 24.3298 73.4459 25.3546 74.4835 25.1858C75.3944 25.0351 75.2074 24.0947 75.2255 23.4376C75.2557 22.039 75.1471 20.6404 75.2255 19.2178C75.2738 18.422 74.7489 15.4923 76.1183 15.4923C77.2222 15.4923 77.4937 18.2894 77.5238 19.1635C77.6324 21.9606 77.7108 24.7638 77.6505 27.567C77.5431 28.5471 77.7752 29.5343 78.308 30.3641C78.3362 30.3986 78.3547 30.4399 78.3617 30.4839C78.3688 30.5278 78.3641 30.5728 78.3482 30.6144C78.3323 30.656 78.3057 30.6926 78.2712 30.7206C78.2366 30.7487 78.1952 30.7671 78.1512 30.774C77.005 30.8765 76.5164 31.829 76.0881 32.8176C75.5302 34.2427 74.5247 35.4484 73.2227 36.2538C73.1665 36.2879 73.0991 36.2988 73.0349 36.2842C72.9707 36.2696 72.9148 36.2306 72.8789 36.1754C72.6376 35.8318 72.3963 35.4942 72.1671 35.1506C70.0014 31.9677 69.8386 31.9315 66.8947 34.162C65.5736 35.1627 63.9871 37.0254 62.6721 36.079C61.6164 35.3315 63.3115 33.6013 63.6493 32.0641C63.655 32.025 63.6518 31.9852 63.6397 31.9476C63.6277 31.91 63.6072 31.8756 63.5798 31.8471C63.5525 31.8186 63.519 31.7967 63.4819 31.7832C63.4448 31.7696 63.4051 31.7646 63.3658 31.7687C61.9783 31.8953 61.3208 33.3301 60.0419 33.4627C59.9964 33.4688 59.9501 33.4619 59.9085 33.4427C59.8668 33.4234 59.8315 33.3927 59.8067 33.3542C59.312 32.5584 60.2108 31.1116 58.6907 30.774C58.3227 30.9187 57.5988 30.8283 57.8522 30.551C61.0795 26.934 58.5218 23.733 57.2972 20.4415C57.0318 19.5887 56.8162 18.7212 56.6517 17.8433C56.4949 16.8607 57.3092 16.3061 58.389 16.8969H58.4192C59.3723 17.6082 62.6419 21.4663 63.408 22.5635C63.9569 23.3532 64.5843 24.0766 65.4469 23.1663L65.7365 22.461C65.833 18.9043 64.4396 15.6912 63.7277 12.3214C63.3417 10.5129 64.6446 10.4104 65.6762 10.8263C66.4001 11.1579 73.0176 21.6833 73.0236 23.6365Z" fill="#871F27"/>
<path d="M63.7939 79.0128C71.8472 78.9706 77.0652 74.0274 77.6986 65.9073C78.0706 62.4758 77.5512 59.0064 76.1905 55.8339C75.4727 54.2606 73.7776 53.2418 72.1488 52.4219C71.2078 51.9517 69.9953 51.6985 69.8686 50.312C79.8944 51.6081 83.4656 59.0109 81.3302 68.192C79.3455 76.704 72.6314 81.3518 63.7939 79.0128Z" fill="#D3E4E7"/>
<path d="M29.6508 106.176C26.5984 106.242 24.6017 104.126 24.5836 100.805C24.5515 100.181 24.6494 99.5573 24.8709 98.9732C25.0924 98.3891 25.4327 97.8573 25.8704 97.4114C26.3081 96.9655 26.8336 96.6153 27.4137 96.3827C27.9938 96.1502 28.6159 96.0404 29.2406 96.0604C32.0095 96.0604 34.7663 98.2788 34.8085 100.503C34.8387 102.957 31.9672 106.14 29.6508 106.176Z" fill="#0A120C"/>
<path d="M1.58789 99.7258C1.64218 96.4283 3.10202 93.9447 4.9781 93.9869C7.39106 94.0411 7.43932 96.0847 7.57204 97.6641C7.78317 100.214 5.38831 103.313 3.51223 103.174C1.01481 102.987 1.80506 100.968 1.58789 99.7258Z" fill="#0C0F13"/>
<path d="M115.009 1.28922C115.908 1.28922 120.855 0.354823 121.609 2.38637C122.315 4.27323 121.223 9.99411 119.998 10.6331C119.443 10.9345 118.647 10.7898 117.959 10.8441C118.466 7.19696 117.989 3.85728 115.009 1.28922Z" fill="#792727"/>
<path d="M36.111 12.0559C32.9862 7.5708 35.556 1.98255 39.1272 1.85596C40.014 1.95241 43.5671 4.20098 44.3935 6.18429C43.2585 5.86284 42.0981 5.63898 40.9249 5.51515C36.7987 5.39458 35.3027 7.47435 36.111 12.0559Z" fill="#702F36"/>
<path d="M41.9746 79.0426C46.1551 79.5792 49.5875 78.2107 52.4831 75.1544C54.5522 72.9601 55.1796 75.9501 56.5067 76.4565C52.845 78.265 49.2075 80.1941 44.8883 79.5912C43.8869 79.4526 42.8614 79.6636 41.9746 79.0426Z" fill="#C9D6D8"/>
<path d="M56.5554 53.1329C55.18 54.7967 54.1425 55.5141 52.2121 53.3077C50.7583 51.662 48.3393 50.6251 45.8901 50.3598C49.8776 49.6666 53.2436 51.3184 56.5554 53.1329Z" fill="#BFDFDE"/>
<path d="M58.5217 68.1918C56.5974 67.8301 55.3306 66.7812 55.4452 64.7979C55.4659 64.3848 55.5691 63.98 55.7486 63.6073C55.9281 63.2346 56.1804 62.9015 56.4905 62.6276C56.8006 62.3536 57.1624 62.1444 57.5546 62.0121C57.9467 61.8799 58.3614 61.8272 58.7742 61.8574C59.187 61.8875 59.5896 61.9998 59.9584 62.1876C60.3272 62.3753 60.6548 62.6349 60.9218 62.9509C61.1888 63.267 61.3899 63.6332 61.5133 64.028C61.6367 64.4228 61.68 64.8383 61.6405 65.25C61.5017 67.0766 60.3073 68.011 58.5217 68.1918Z" fill="#0B0E0D"/>
<path d="M34.1625 61.916C35.9723 62.0848 37.2391 62.9227 37.3175 64.8458C37.3959 66.7688 36.3221 67.9745 34.4943 68.1011C32.5096 68.2337 31.2911 67.0762 31.1946 65.0447C31.0981 63.0132 32.3709 62.2235 34.1625 61.916Z" fill="#080C0A"/>
<path d="M30.2899 59.8966C30.0607 61.7051 29.6022 64.0622 29.3428 66.148C28.2027 64.8278 28.4621 59.3058 30.2899 59.8966Z" fill="#5A5D6A"/>
<path d="M78.875 183.857C77.8857 180.843 75.72 178.432 74.8212 175.327C73.8078 171.861 73.657 168.527 75.2435 165.218C76.9205 163.717 77.6564 160.998 80.5821 161.112C80.6183 168.166 80.6545 175.219 80.6907 182.272C80.6847 183.447 80.9682 185.003 78.875 183.857Z" fill="#582F30"/>
<path d="M80.6004 161.112C78.1874 161.673 77.2042 164.066 75.2617 165.217C75.2617 165.018 75.2617 164.741 75.3522 164.615C79.4603 160.955 78.5614 155.928 78.7967 151.322C79.0863 145.643 78.7545 139.941 78.9294 134.25C79.0139 131.64 78.8872 128.867 80.6667 126.588C80.6426 138.106 80.6205 149.614 80.6004 161.112Z" fill="#945638"/>
</svg>
