<svg width="324" height="236" viewBox="0 0 324 236" fill="none" xmlns="http://www.w3.org/2000/svg">
<path d="M118.941 134.091C118.941 134.091 96.6298 182.749 87.5768 198.011C78.5237 213.272 82.2605 235.166 105.025 235.166H158.948L118.941 134.091Z" fill="#E76326"/>
<path d="M241.346 235.166H295.277C297.68 235.187 300.075 234.905 302.407 234.325C316.974 230.669 320.133 215.364 314.948 202.523C314.332 200.965 313.599 199.457 312.754 198.011C303.708 182.749 281.39 134.091 281.39 134.091L241.346 235.166Z" fill="#E76326"/>
<path d="M297.251 220.161C297.251 225.872 299.262 230.976 302.37 234.326C316.937 230.669 320.096 215.364 314.911 202.523C313.739 202.1 312.502 201.882 311.255 201.879C303.526 201.879 297.251 210.062 297.251 220.161Z" fill="#CE4100"/>
<path d="M103.043 220.161C103.043 225.872 101.032 230.976 97.8873 234.326C83.3205 230.669 80.1614 215.364 85.3461 202.523C86.5187 202.1 87.7557 201.882 89.0024 201.879C96.7685 201.879 103.043 210.062 103.043 220.161Z" fill="#CE4100"/>
<path d="M229.975 68.3132C238.75 59.6916 236.469 38.9017 236.469 38.9017L198.524 17.2124L162.443 38.9017C162.443 38.9017 162.406 59.2382 171.408 67.9842L229.975 68.3132Z" fill="#042E3C"/>
<path d="M261.266 261.939C261.266 261.939 261.639 262.494 262.231 263.474C249.339 261.281 236.045 261.2 223.036 261.566C206.136 262.034 189.237 262.107 172.337 262.568C160.593 262.889 148.827 263.299 137.061 263.555C138.15 262.509 138.852 261.939 138.852 261.939L134.362 200.863L101.36 171.079L118.26 135.335C118.26 135.247 118.348 135.181 118.377 135.093C124.498 124.037 136.505 117.543 149.134 117.543H251.131C263.76 117.543 275.767 124.051 281.895 135.093C281.895 135.181 281.983 135.247 282.012 135.335L297.252 170.172L265.756 201.01L261.266 261.939Z" fill="#E76326"/>
<path d="M271.174 140.307L266.275 195.042L277.734 165.104" stroke="#CE4100" stroke-miterlimit="10"/>
<path d="M128.82 143.282L133.712 198.01L122.253 168.079" stroke="#CE4100" stroke-miterlimit="10"/>
<path d="M240.089 136.541C240.089 136.541 213.324 172.87 173.032 143.275" stroke="#CE4100" stroke-miterlimit="10"/>
<path d="M171.892 117.498C176.338 131.678 184.535 141.915 200.133 141.915C215.731 141.915 223.607 131.678 228.067 117.513H226.707C225.244 117.512 223.811 117.092 222.579 116.303C221.347 115.514 220.366 114.389 219.753 113.06C219.386 112.304 219.153 111.49 219.065 110.654L216.272 83.9041L215.051 72.0723H185.215L183.906 84.6427L182.305 99.9993L181.201 110.639C180.997 112.522 180.105 114.264 178.696 115.53C177.287 116.796 175.46 117.497 173.566 117.498H171.892Z" fill="#F6B9AE"/>
<path d="M182.304 99.9991C192.541 109.418 204.293 111.378 219.752 113.045C219.385 112.289 219.152 111.475 219.064 110.639L216.271 83.8894C205.01 83.2678 192.227 83.1142 183.905 84.6206L182.304 99.9991Z" fill="#F0939C"/>
<path d="M219.065 108.642L209.23 131.18L225.939 147.962L229.976 117.498L219.065 108.642Z" fill="white"/>
<path d="M181.573 108.642L191.401 131.18L174.699 147.962L170.662 117.498L181.573 108.642Z" fill="white"/>
<path d="M171.401 67.9848C165.083 62.2883 159.247 63.4875 158.969 72.2408C158.691 80.994 168.351 85.6083 174.143 81.462C179.935 77.3158 171.401 67.9848 171.401 67.9848Z" fill="#F6B9AE"/>
<path d="M166.283 69.4614C162.992 69.5419 163.358 79.3262 170.363 78.1854L168.242 75.1872L169.01 72.1671L166.283 69.4614Z" fill="#F0939C"/>
<path d="M171.774 78.7777C166.824 75.6552 168.849 72.0427 168.849 72.0427C168.849 72.0427 163.182 65.4613 163.218 71.6186" stroke="#E27F89" stroke-width="0.5" stroke-miterlimit="10"/>
<path d="M229.975 68.3136C235.825 62.1344 241.734 62.8656 242.721 71.5677C243.708 80.2698 234.421 85.6519 228.257 81.9517C222.092 78.2515 229.975 68.3136 229.975 68.3136Z" fill="#F6B9AE"/>
<path d="M235.197 69.3809C238.488 69.1981 238.912 78.9825 231.826 78.4048L233.706 75.2457L232.696 72.3206L235.197 69.3809Z" fill="#F0939C"/>
<path d="M230.451 79.1071C235.139 75.597 232.813 72.1601 232.813 72.1601C232.813 72.1601 237.932 65.1253 238.393 71.2899" stroke="#E27F89" stroke-width="0.5" stroke-miterlimit="10"/>
<path d="M227.803 34.7197C227.803 34.7197 241.141 101.111 203.072 104.563C162.428 108.219 171.774 34.7197 171.774 34.7197H227.803Z" fill="#F6B9AE"/>
<path d="M183.203 71.7141C183.327 72.0366 183.353 72.3888 183.278 72.726C183.202 73.0633 183.028 73.3705 182.777 73.6088C182.527 73.8472 182.212 74.0059 181.871 74.065C181.53 74.124 181.18 74.0808 180.864 73.9407C180.548 73.8006 180.281 73.5699 180.096 73.2779C179.911 72.9858 179.817 72.6455 179.825 72.2999C179.834 71.9544 179.945 71.6191 180.144 71.3365C180.343 71.0539 180.621 70.8367 180.943 70.7123C181.158 70.6297 181.386 70.5901 181.615 70.5957C181.845 70.6014 182.071 70.6522 182.281 70.7452C182.491 70.8382 182.68 70.9717 182.838 71.1379C182.997 71.3042 183.121 71.5 183.203 71.7141Z" fill="#E27F89"/>
<path d="M186.041 74.2726C186.103 74.432 186.115 74.6061 186.078 74.7727C186.04 74.9393 185.953 75.091 185.829 75.2085C185.705 75.326 185.549 75.404 185.381 75.4327C185.213 75.4614 185.039 75.4395 184.884 75.3698C184.728 75.3 184.596 75.1856 184.505 75.0409C184.414 74.8962 184.368 74.7278 184.373 74.5571C184.378 74.3863 184.434 74.2209 184.533 74.0817C184.632 73.9426 184.77 73.8359 184.93 73.7753C185.143 73.6944 185.38 73.7013 185.588 73.7945C185.797 73.8877 185.96 74.0596 186.041 74.2726Z" fill="#E27F89"/>
<path d="M186.407 70.251C186.492 70.4684 186.51 70.7061 186.46 70.934C186.409 71.1618 186.292 71.3695 186.123 71.5307C185.955 71.6919 185.742 71.7993 185.512 71.8392C185.282 71.8792 185.045 71.8499 184.832 71.7552C184.619 71.6604 184.438 71.5044 184.314 71.3069C184.19 71.1095 184.127 70.8795 184.133 70.6462C184.14 70.413 184.216 70.1869 184.351 69.9968C184.486 69.8066 184.675 69.6609 184.893 69.5783C185.183 69.4684 185.505 69.4775 185.788 69.6034C186.072 69.7294 186.294 69.9621 186.407 70.251Z" fill="#E27F89"/>
<path d="M212.695 51.0995C222.538 55.063 229.141 54.2001 220.9 50.0758C212.659 45.9514 207.598 49.0447 212.695 51.0995Z" fill="#003D4D"/>
<path d="M194.984 72.3134L200.469 63.9258L205.697 72.445C207.006 74.573 203.599 74.712 203.599 74.712C203.599 74.712 203.599 76.7229 200.271 76.8619C196.93 76.6206 197.017 74.6096 197.017 74.6096C197.017 74.6096 193.617 74.3975 194.984 72.3134Z" fill="url(#paint0_linear)"/>
<path d="M189.565 83.2821C189.814 84.2203 190.204 85.1153 190.721 85.9366C190.926 86.2511 191.145 86.5875 191.401 86.9092C191.511 87.0482 191.65 87.2163 191.796 87.3699C191.942 87.5235 191.942 87.5162 192.03 87.6039C193.77 89.4906 196.637 91.2602 201.405 91.0555H201.756V91.0189C206.202 90.6899 208.864 88.8617 210.414 86.9238C210.43 86.9031 210.445 86.8811 210.458 86.858C210.588 86.7039 210.71 86.5428 210.823 86.3754C211.185 85.8681 211.5 85.3298 211.767 84.7666C212.179 83.8838 212.469 82.9489 212.63 81.9878L189.565 83.2821Z" fill="white"/>
<path d="M191.4 86.9098C191.51 87.0487 191.649 87.2169 191.795 87.3705L210.472 86.844C210.602 86.6898 210.724 86.5287 210.837 86.3613L191.4 86.9098Z" fill="#F0939C"/>
<path d="M218.605 71.9188C218.489 72.2444 218.473 72.597 218.559 72.9318C218.644 73.2666 218.827 73.5683 219.085 73.7986C219.342 74.0289 219.663 74.1773 220.005 74.2249C220.347 74.2726 220.696 74.2173 221.006 74.0661C221.317 73.9149 221.576 73.6746 221.749 73.3759C221.923 73.0772 222.004 72.7336 221.982 72.3888C221.959 72.044 221.835 71.7137 221.624 71.4399C221.413 71.166 221.126 70.9611 220.798 70.8512C220.366 70.706 219.894 70.7365 219.483 70.9362C219.073 71.1359 218.757 71.4888 218.605 71.9188Z" fill="#E27F89"/>
<path d="M215.826 74.5809C215.751 74.7981 215.765 75.0361 215.865 75.243C215.965 75.4499 216.143 75.6088 216.36 75.6851C216.521 75.7403 216.695 75.7466 216.859 75.7031C217.024 75.6597 217.172 75.5686 217.285 75.4411C217.398 75.3137 217.471 75.1557 217.494 74.987C217.517 74.8183 217.49 74.6465 217.416 74.4932C217.342 74.3399 217.224 74.2119 217.077 74.1254C216.931 74.0389 216.762 73.9978 216.592 74.0072C216.422 74.0165 216.258 74.076 216.122 74.1781C215.986 74.2802 215.883 74.4203 215.826 74.5809Z" fill="#E27F89"/>
<path d="M215.357 70.5593C215.282 70.7794 215.273 71.0169 215.333 71.2419C215.392 71.4668 215.517 71.669 215.692 71.8231C215.866 71.9771 216.082 72.076 216.313 72.1072C216.543 72.1385 216.778 72.1007 216.987 71.9987C217.196 71.8967 217.37 71.735 217.488 71.534C217.605 71.3331 217.66 71.1019 217.646 70.8696C217.632 70.6374 217.55 70.4145 217.409 70.2291C217.268 70.0437 217.076 69.9041 216.856 69.828C216.71 69.7773 216.555 69.756 216.4 69.7653C216.245 69.7747 216.094 69.8144 215.955 69.8824C215.815 69.9503 215.691 70.0451 215.588 70.1612C215.486 70.2774 215.407 70.4126 215.357 70.5593Z" fill="#E27F89"/>
<path d="M188.278 50.6392C178.728 55.4583 172.015 55.1511 179.949 50.3028C187.884 45.4545 193.236 48.1383 188.278 50.6392Z" fill="#003D4D"/>
<path d="M212.563 63.348L213.002 59.6259C213.062 59.109 213.325 58.6372 213.733 58.3143C214.141 57.9913 214.661 57.8436 215.178 57.9038C215.694 57.9639 216.166 58.2269 216.489 58.6349C216.812 59.0428 216.96 59.5624 216.9 60.0793L216.461 63.8087C216.431 64.0647 216.35 64.3121 216.225 64.537C216.099 64.7619 215.93 64.9597 215.727 65.1193C215.525 65.2789 215.293 65.397 215.045 65.467C214.797 65.537 214.538 65.5575 214.282 65.5272C214.026 65.497 213.778 65.4166 213.554 65.2907C213.329 65.1648 213.131 64.9959 212.971 64.7935C212.812 64.5912 212.694 64.3594 212.624 64.1114C212.554 63.8633 212.533 63.604 212.563 63.348Z" fill="#003D4D"/>
<path d="M183.883 63.6706L183.722 59.9192C183.711 59.6619 183.751 59.4048 183.839 59.1628C183.927 58.9208 184.062 58.6986 184.237 58.5088C184.411 58.319 184.621 58.1654 184.854 58.0567C185.088 57.948 185.34 57.8864 185.598 57.8753C185.855 57.8643 186.112 57.9041 186.354 57.9923C186.596 58.0806 186.818 58.2157 187.008 58.3899C187.198 58.5641 187.352 58.7739 187.46 59.0075C187.569 59.241 187.631 59.4937 187.642 59.751L187.803 63.5024C187.825 64.0222 187.64 64.5295 187.288 64.9129C186.936 65.2962 186.447 65.524 185.927 65.5463C185.407 65.5686 184.9 65.3835 184.516 65.0318C184.133 64.68 183.905 64.1904 183.883 63.6706Z" fill="#003D4D"/>
<path d="M221.997 39.7429C221.997 39.7429 197.682 54.0392 177.573 34.7191C177.573 34.7191 178.392 45.8709 170.362 49.8929L162.436 38.9239C162.436 38.9239 161.083 19.4064 172.841 22.507C172.841 22.507 187.628 -11.57 216.915 4.1376C246.202 19.8452 254.582 46.1634 235.796 47.5821C235.796 47.5821 227.679 49.3006 221.997 39.7429Z" fill="#042E3C"/>
<defs>
<linearGradient id="paint0_linear" x1="201.797" y1="81.9363" x2="200.291" y2="56.4686" gradientUnits="userSpaceOnUse">
<stop stop-color="#F0939C"/>
<stop offset="1" stop-color="#E9949C" stop-opacity="0"/>
</linearGradient>
</defs>
</svg>
